<?xml version="1.0" encoding="utf-8"?>
<!-- Generator: Adobe Illustrator 26.0.1, SVG Export Plug-In . SVG Version: 6.00 Build 0)  -->
<svg version="1.1" id="Layer_1" xmlns="http://www.w3.org/2000/svg" xmlns:xlink="http://www.w3.org/1999/xlink" x="0px" y="0px"
	 viewBox="0 0 880.9 883.4" style="enable-background:new 0 0 880.9 883.4;" xml:space="preserve">
<style type="text/css">
	.st0{fill:#11BB50;}
	.st1{fill:#1548C5;}
</style>
<path class="st0" d="M420.8,492.4c-111.2,0-207-80-226.7-189.2c-5.1-27.9-5.1-56.5,0-84.3c0.5-3,1.3-4.1,4.4-2.9
	c9.9,4,20.4,6,30.7,8.6c3.1,0.8,4.3,1.9,3.7,5.4c-17.8,104.3,54.6,204.8,158.7,220.3c30.6,4.6,60.7,2.3,90-7.8
	c4.1-1.4,5.2,0,6.4,3.2c4,10.3,5.8,21.3,10.8,31.3c1.4,2.9-1.5,2.4-2.7,2.8c-11.9,4.3-24.1,7.4-36.6,9.5
	C446.7,491.4,433.8,492.5,420.8,492.4z"/>
<path class="st1" d="M421.1,365.4C365.2,365.9,319.5,320.9,319,265c-0.1-11,1.6-22,5.1-32.4c0.7-2.2,1.7-3.1,4.2-2.9
	c35.9,3.7,70.8,10.9,103.2,27.9c29,15.2,51.5,37.3,71.1,62.9c1.7,2.2,1.5,3.7-0.1,5.6c-17.2,21.4-39.4,34.2-66.6,38.4
	c-2.6,0.4-5.3,0.7-7.9,0.9C425.8,365.5,423.4,365.4,421.1,365.4z"/>
<path class="st1" d="M342,200.3c16.9-20,37.8-31.9,63-36.2c48.1-8.2,96.3,20,112.8,65.9c6.9,19,7.9,39.8,2.8,59.4
	c-0.3,1.3-0.2,3.3-1.9,3.7s-3-1.1-4.1-2.4c-12.3-13.3-25-26.4-39.4-37.5c-33.2-25.5-70.6-41.4-111.8-48.5
	c-6.5-1.1-13.1-2.4-19.6-3.6C343.2,201,342.6,200.7,342,200.3z"/>
<path class="st0" d="M0.7,806.7c0-23.3,0.1-46.6-0.1-69.9c0-3.6,0.7-4.8,4.6-4.8c30.3,0.2,60.6,0.2,90.9,0c3.9,0,4.8,1.2,4.6,4.8
	c-0.3,5.7-0.3,11.3,0,17c0.3,4.2-0.7,5.6-5.3,5.5c-20.5-0.3-40.9,0-61.4-0.2c-3.9,0-5.1,0.9-4.9,4.9c0.3,8.1,0.3,16.3,0,24.5
	c-0.1,3.8,0.8,5.1,4.9,5c17-0.2,34,0,50.9-0.2c3.7,0,4.9,0.9,4.7,4.7c-0.3,6.1-0.3,12.3,0,18.5c0.1,3.4-0.8,4.5-4.4,4.5
	c-17-0.2-33.9,0.1-50.9-0.2c-4.2-0.1-5.4,1.1-5.2,5.2c0.3,7.8,0.3,15.7,0,23.5c-0.1,3.7,0.8,4.8,4.6,4.7c20.8-0.2,41.6,0,62.4-0.2
	c3.8,0,4.8,1,4.6,4.7c-0.3,6.1-0.2,12.3,0,18.5c0.1,2.9-0.5,4-3.8,4c-30.8-0.1-61.6-0.1-92.4,0c-3.8,0-3.8-1.7-3.8-4.5
	C0.7,853.3,0.7,830,0.7,806.7z"/>
<path class="st0" d="M267.3,786.6c0-16.5,0.1-33-0.1-49.4c0-3.3,0.9-4.3,4.2-4.1c6.6,0.2,13.3,0.3,20,0c3.6-0.2,4.4,1.1,4.4,4.5
	c-0.2,29.5-0.2,58.9-0.2,88.4c0,8,0.5,16.1,6.7,22.3c8.9,8.8,19.6,9.1,30.6,5.7c9.2-2.8,15-11.4,15.1-22.5c0.2-31,0.2-61.9,0-92.9
	c0-4.1,0.6-5.9,5.3-5.5c6.6,0.5,13.3,0.2,20,0.1c2.4,0,3.1,0.7,3.1,3.1c-0.2,33.1,0.5,66.3-0.6,99.4c-1,30.2-22.9,48.5-54.9,47.9
	c-16.8-0.3-32-4.6-42.7-18.6c-8.8-11.4-10.6-24.9-10.8-38.8c-0.1-13.2,0-26.3,0-39.5L267.3,786.6z"/>
<path class="st0" d="M250.1,142.3C272,112,301.5,88.1,335.6,73c23.6-10.5,48.4-16.1,74.2-17.9c3.9-0.3,5.3,0.6,5.1,4.7
	c-0.8,14.1-1.5,28.2-2,42.3c-0.1,3.9-2.8,3.1-4.9,3.3c-22.1,1.8-43.6,8.1-63.1,18.6c-19.7,10.5-37,25.1-50.6,42.9
	c-2.2,2.9-3.6,3.1-6.6,1C275.5,159.3,263,151,250.1,142.3z"/>
<path class="st0" d="M415.4,528.4c-43.9-0.4-88.6-12.2-130-36.5c-3.3-1.9-4-3.1-1.2-6.1c2.6-2.8,4.8-6,6.6-9.3
	c1.6-2.9,3.1-2.8,5.8-1.3c23.7,13.9,49.5,23.6,76.5,28.8c101.5,20,206-27.7,257.7-117.5c0.8-1.4,1.7-2.8,2.5-4.3
	c0.8-1.7,1.9-2.1,3.6-1.1c0.7,0.4,1.4,0.8,2.2,1.2c4.5,2,11.8,2.7,12.4,6.8s-4.2,9-6.9,13.3c-40.5,64-97.8,104.2-171.8,120.6
	C455.3,526.8,437.4,528.3,415.4,528.4z"/>
<path class="st0" d="M413,445.5c-79.3,0-153.8-61.2-170.6-147.1c-4.2-21.6-4.3-43.8-0.4-65.5c0.6-3.2,1.9-3.9,4.6-3.1
	c0.2,0,0.3,0,0.5,0.1c4.6,0.8,9.9,1.1,13.2,3.9c3.7,3.3,0.2,8.5-0.3,12.7c-9,79.5,42.4,154.1,120,173.8c30.1,7.9,61.9,6.9,91.5-2.8
	c3.4-1.1,4.9-1,5.7,3c0.9,3.7,2.3,7.3,4.1,10.7c1.9,3.5,0.3,4.3-2.7,5.3C460.1,442.5,441,445.6,413,445.5z"/>
<path class="st0" d="M419.4,0c32.3,0,64.3,6,94.5,17.4c3.3,1.3,4.5,2.4,2.6,5.9s-3,7.3-4.6,11c-1,2.4-2.4,2.9-5.1,1.9
	c-30.6-11.9-63.4-17.3-96.2-16c-56.2,2.3-105.9,21.5-149.1,57.7c-7.7,6.4-14.9,13.3-21.6,20.7c-2.1,2.4-3.5,2.2-5.5,0.1
	c-2.9-3.2-6-6.2-9.4-8.9c-2.4-1.9-1.7-2.8-0.1-4.6C258.9,49,299.6,24,347.1,10.1C370.6,3.4,395,0,419.4,0z"/>
<path class="st0" d="M880.4,805c0,23.5-0.1,46.9,0.1,70.4c0,3.7-0.8,4.7-4.6,4.6c-10.4-0.2-10.4-0.1-10.4-10.7c0-17-0.1-34,0.1-50.9
	c0-3.7-0.6-5.1-4.8-5c-22,0.2-44,0.2-65.9,0c-4,0-5.4,0.8-5.3,5.1c0.2,19,0,37.9,0.2,56.9c0,3.7-0.8,4.7-4.6,4.6
	c-10.4-0.3-10.4,0-10.4-10.3c0-44.6,0-89.2-0.1-133.8c0-3.8,0.7-5.1,4.8-5c10.2,0.3,10.2,0.1,10.2,10c0,17.8,0.1,35.6-0.1,53.4
	c0,3.5,0.4,4.9,4.5,4.8c22.5-0.2,44.9-0.2,67.4,0c3.2,0,4.1-0.8,4.1-4.1c-0.2-19.8,0-39.6-0.2-59.4c0-3.7,0.8-4.8,4.6-4.7
	c10.4,0.2,10.4,0,10.4,10.7L880.4,805z"/>
<path class="st0" d="M529.1,805.6c0-23.1,0.1-46.2-0.1-69.4c0-4,0.7-5.3,5-5.3c28.8,0.2,57.6,0.2,86.3,0c3.6,0,4.8,0.7,4.7,4.6
	c-0.3,9.4,0,9.4-9.3,9.4c-22.5,0-44.9,0.1-67.4-0.1c-3.4,0-4.5,0.8-4.5,4.3c0.2,15.1,0.2,30.3,0,45.4c-0.1,4,1.2,4.5,4.8,4.5
	c20.1-0.2,40.3,0,60.4-0.2c3.4,0,4.9,0.3,4.8,4.4c-0.3,9.6-0.1,9.6-9.5,9.6c-18.6,0-37.3,0.1-55.9-0.1c-3.3,0-4.5,0.6-4.5,4.3
	c0.2,14.8,0.3,29.6,0,44.4c-0.1,4,1.3,4.5,4.8,4.5c23.8-0.2,47.6,0,71.4-0.2c3.7,0,5.1,0.7,5,4.8c-0.3,9.2-0.1,9.2-9.4,9.2
	c-26.8,0-53.6-0.2-80.4,0.2c-5.4,0.1-6.4-1.6-6.3-6.6C529.3,850.9,529.1,828.3,529.1,805.6z"/>
<path class="st0" d="M651.7,264c0.1,8.4-1,19.1-2.2,29.9c-0.4,3.3-1.1,5-5.1,3.5c-9.6-3.6-19.7-5.9-29.8-7.9
	c-3.3-0.6-4.7-1.6-4.2-5.9c3.8-30.6,0-61.7-11.2-90.5c-1.5-3.8-0.4-4.8,2.8-5.8c9.9-3.1,18.6-8.8,27.7-13.4c3.5-1.8,4.5-1.4,5.9,2
	C646.3,203.5,651.7,232,651.7,264z"/>
<path class="st0" d="M748.9,771.9c-0.8-0.1-1.7-0.1-2.5,0c-7.6,1-12.3-0.8-16.2-8.9c-7.4-15.5-24.3-22.2-41.2-18.8
	c-14.4,2.9-25.9,15.5-27.3,32.4c-1.7,20.9-3,42,0.9,62.7c3.3,17.6,16.1,27.5,33.7,28.5c15.5,0.9,30.9-9.1,36.5-24.3
	c1.3-3.5,2.7-4.7,6.3-4.4c3.1,0.3,6.3,0.1,9.5,0.1c-1.1,16.5-15.5,34.1-33.4,39.5c-32.8,10-66.2-7.1-68.6-46.3
	c-1.3-20.6-2.3-41.3,1-61.8c4-25,25-41.5,50.6-41.1S745.6,747.8,748.9,771.9z"/>
<path class="st1" d="M563.8,263.7c0,73-52.8,133.8-124.1,143.7c-63.7,8.9-126.8-27.3-151.4-86.7c-1.9-4.6,0.4-8.4,5.4-8.9
	c2.8-0.2,2.7,2.1,3.3,3.6c7.3,17.8,17.6,33.6,31.9,46.5c39,35.4,84.4,46.2,134.2,29.3s79.2-53,88.9-104.8c4.4-23.8,1.6-47-6.9-69.6
	c-1.3-3.6,2.1-8.8,6-8.9c2-0.1,1.9,1.7,2.3,2.7c4.8,11.9,8,24.3,9.5,37.1C563.5,253,563.9,258.3,563.8,263.7z"/>
<path class="st0" d="M683.6,264.3c-0.1,12.8-1,25.6-2.8,38.2c-0.4,2.5-0.6,3.7-3.6,2.5c-4.1-1.6-8.7-1.5-13-3
	c-3-1.1-3.2-2.2-2.8-4.9c7.7-61.7-5.4-118.5-40-170.2c-1.6-2.4-1.6-3.4,1-4.8c3.8-2.1,7.4-4.5,10.7-7.2c2.7-2.4,3.7-1.1,5.2,1.1
	c23.8,35.5,38.5,74.4,43.5,116.9C683,243.3,683.6,253.8,683.6,264.3z"/>
<path class="st0" d="M458.9,812.6c0,21-0.1,42,0.1,62.9c0,3.8-1,4.6-4.7,4.5c-10.4-0.2-10.4-0.1-10.4-10.2c0-40.1,0-80.2,0.1-120.3
	c0-3.6-0.7-4.8-4.5-4.7c-12.1,0.3-24.3,0-36.5,0.2c-3.2,0-4.2-0.8-4.2-4.1c0.1-9.9-0.1-9.9,9.7-9.9c30.3,0,60.6,0.1,90.9-0.1
	c3.8,0,4.7,1,4.6,4.7c-0.2,9.3,0,9.3-9.4,9.3c-10.5,0-21,0.2-31.5-0.1c-3.5-0.1-4.4,0.8-4.4,4.3C459,770.3,458.9,791.4,458.9,812.6z
	"/>
<path class="st1" d="M277.1,258.8c2-67.2,54-126.3,120.7-136c54.1-7.8,98.8,10,134,51.6c1.2,1.4,5.3,2.8,1.7,5.8
	c-5.3,4.5-6,4.5-9.4,0.4c-28.4-33.9-64.7-50.7-108.9-49.6c-62.1,1.5-116.9,50.1-126.3,111.6c-1,6.3-2.1,12.5-1.7,18.8
	c0.4,6-3.6,3.8-6.5,4.3c-4,0.7-3.9-1.8-3.7-4.4C277.2,260.4,277.1,259.6,277.1,258.8z"/>
<path class="st0" d="M601.5,369.1c-0.6,1-1.1,2-1.7,3c-12.4,20.1-28.2,38-46.7,52.9c-2,1.6-3.1,2.2-5-0.2
	c-8.4-10.7-17-21.3-25.6-31.9c-2.6-3.2-3.1-5.2,0.8-8.3c11.9-9.4,22.2-20.7,30.5-33.4c1.7-2.6,3.4-3.8,6.5-2.3
	c12.2,5.6,24.5,11,36.8,16.5C598.9,366.2,600.7,367,601.5,369.1z"/>
<path class="st0" d="M510.3,53c3.1,1.3,6.1,2.4,8.9,3.7c32.6,15.5,61.1,38.4,83.2,66.9c1.6,2,1.9,3.2-0.2,5.2
	c-2.3,1.9-4.8,3.5-7.6,4.6c-2,1-3.1,0.8-4.5-1c-21.6-27.8-49.8-49.9-81.9-64.3c-0.9-0.4-2.4-0.7-2.2-1.7c0.9-4.3,2.1-8.6,3.3-12.9
	C509.3,53.2,510,53.1,510.3,53z"/>
<path class="st0" d="M603.8,264.2c0.1,6.4-0.1,12.8-0.9,19.2c-0.2,2-0.8,2.7-2.8,1.7c-4.3-2.3-9.1-3-13.8-4.3
	c-2.5-0.7-3-1.7-2.9-4.1c1.5-23.9-1.5-47.1-10.3-69.4c-1-2.6-0.2-4.2,1.8-5.4c4.1-2.5,8.4-4.7,12.5-7.2c2.3-1.4,2.5,0.6,3,1.8
	c6.2,15.2,10.3,31.2,12.2,47.5C603.6,250.7,603.9,257.4,603.8,264.2z"/>
<path class="st0" d="M564.3,152.3c-0.1,1.3-1.1,1.7-1.9,2.2c-4.2,2.7-8.5,5.3-12.5,8.2c-2.6,1.9-3.2-0.5-4.1-1.6
	c-11.1-13.1-24.3-24.3-38.9-33.2c-5-3-10.1-5.7-15.4-8.2c-2.5-1.2-3.1-2.6-2.3-5c1.3-3.9,2.6-7.9,4-11.8c1-2.7,2.6-3.4,5.4-2.1
	c24.8,11.5,46.8,28.4,64.2,49.5C563.4,151,563.8,151.7,564.3,152.3z"/>
<path class="st0" d="M732.1,665.2c5.7-13.8,11.2-27.2,16.6-40.5c1.2-2.9,2.7-5.2,6.4-5.4c6.9-0.4,7.8,0.2,7.8,7.2
	c0,15.1,0,30.3,0,45.4c0,2.5,0.3,4.5-3.4,4.5c-3.4,0-4.1-1.4-4-4.5c0.1-14.8,0.1-29.6,0.1-44.6c-2,1-2,2.9-2.7,4.4
	c-5.5,13.3-10.8,26.7-16.2,40.1c-0.9,2.3-1.5,4.5-4.9,4.5s-4.1-2-5-4.4c-5.3-13.5-10.6-27-15.9-40.6c-0.3-1.3-1.1-2.5-2.1-3.4
	c0,14.8-0.1,29.2,0,43.7c0,2.9-0.2,4.6-3.8,4.7c-4,0.1-3.7-2.2-3.7-4.8c0-15.1,0-30.3,0-45.4c0-2.6-1.1-6,3-6.9
	c5.3-1.2,9.5,0.4,11.3,4.7c4.8,11.7,9.3,23.4,14,35.1C730.3,661,731.1,662.8,732.1,665.2z"/>
<path class="st0" d="M563.5,442.9c-2.6-1.6-4.3-4.1-6.4-6.2c-3-2.9-2.2-5,0.7-7.8c17.1-16.4,35-32.1,47.4-52.8
	c1-1.7,1.8-4.6,4.4-4.2c3.6,0.6,7.3,1.5,10.1,3.9c1.7,1.4-0.3,3.3-1.2,4.8c-8.5,14.1-18.5,27.3-29.8,39.3
	c-6.9,7.4-14.4,14.3-22.3,20.7C565.6,441.3,564.7,442,563.5,442.9z"/>
<path class="st0" d="M393,659.2c0,1.7,0,3.3,0,5c0,9,0,9-8.7,11.4c-16,4.4-30.2-1.9-35.4-15.7c-5.7-15,0.2-32.2,13.7-38.6
	c9-4.3,18.1-3.6,27,0.6c1.2,0.5,2.3,1.4,3,2.4c0.9,1.6,1.1,3.8,0,5.2c-1.3,1.7-2.7-0.3-3.8-0.9c-5.9-3.3-12.2-4.6-18.8-3
	c-11.2,2.7-17.4,15.2-14.3,28.5c3,12.8,14.2,19.2,26.6,15c1.4-0.5,3.1-0.8,3.1-2.7c0.1-4.5,0-9,0-13.5c0-2.1-1.6-1.7-2.9-1.7
	c-2.8,0-5.7-0.1-8.5,0c-2.5,0.1-3.1-1.1-3.1-3.3s1-2.9,3.1-2.8c5.2,0.1,10.3,0.1,15.5,0c2.6,0,3.6,1.1,3.6,3.6
	C393,652.2,393,655.8,393,659.2z"/>
<path class="st0" d="M221.2,437.6c-1.3,0.2-1.7-0.9-2.3-1.5c-8.1-9.4-15.6-19.5-22.2-30c-1-1.5-0.9-2.2,0.9-3.2
	c4.4-2.4,8.9-4.4,12.6-7.9c1.4-1.4,2.4-1.2,3.5,0.5c6.2,9.8,13.1,19.2,20.8,28c0.6,0.7,1.5,1.5,0.4,2.5c-4.1,3.6-8.1,7.3-12.2,10.9
	C222.1,437.1,221.7,437.4,221.2,437.6z"/>
<path class="st0" d="M525.5,466.5c0.4,1.2-1,1.4-1.7,1.8c-4.3,2.1-8.7,4-13.1,6.1c-2.2,1.1-3.4,0.3-4-1.9
	c-3.1-10.6-7.9-20.6-12.2-30.7c-1.1-2.5-1.3-3.8,1.6-4.7c1.6-0.5,3.1-1.2,4.5-2c6.2-2.9,6.3-2.9,9.5,2.9c4.8,8.8,9.6,17.6,14.4,26.5
	C524.8,465,525.1,465.6,525.5,466.5z"/>
<path class="st0" d="M273.4,484.3c-0.6-0.4-1.3-0.8-2-1.3c-6.1-4.5-12.2-9.1-18.4-13.6c-2.2-1.6-2.1-2.5-0.1-4.4
	c3.3-3.3,6.3-6.7,9.1-10.4c1.3-1.6,2-2,3.8-0.7c5.8,4.5,11.6,8.8,17.5,13c1.4,1,2.3,1.8,1,3.5c-3.1,4.1-6.1,8.3-9.1,12.4
	C274.9,483.6,274.6,484.4,273.4,484.3z"/>
<path class="st0" d="M257.1,447c-0.6,0.9-1.1,1.6-1.6,2.2c-1.5,1.6-3,3.1-4.4,4.7c-7.2,7.7-7.3,7.7-15,0.3c-3.1-3-8.3-5.8-8.1-9.4
	c0.1-2.9,5.5-5.6,8.5-8.3c5.3-4.8,5.3-4.8,10.5,0.4c2.7,2.7,5.5,5.3,8.2,8C255.8,445.5,256.4,446.2,257.1,447z"/>
<path class="st1" d="M288.2,292.3c3.5,1.9,3.5,5.8,3.6,8.4c0,3.9-4.6,3.5-6.9,3.5c-4.6,0-3.8-4.9-3.9-7.5
	C280.8,292.1,285.8,294.5,288.2,292.3z"/>
<path class="st1" d="M282.8,276.8c3-0.2,5.5-0.5,5.2,3.1c-0.3,4.6-3.8,2.3-6,2.8c-2.6,0.6-4.4-0.1-4.2-3.5
	C278.2,274.6,281.9,278,282.8,276.8z"/>
<path class="st0" d="M235.2,778.4c-0.6-11.8-4.9-22.3-13.4-30.9c-10.8-10.8-24.4-14.7-39-15.2c-17.1-0.6-34.3-0.1-51.4-0.3
	c-3.7-0.1-3.9,1.5-3.9,4.4c0.1,23.3,0.1,46.6,0.1,69.9c0,23.5,0,46.9,0,70.4c0,2.1-0.7,4.4,2.9,4.3c20-0.6,40,1.2,59.9-1.1
	c26.6-3,43.8-21.4,45-48.1C236,814,236.1,796.2,235.2,778.4z M206.4,827.2c-0.1,16.2-8.1,25-24.2,26.4c-7.8,0.7-15.6,0.2-23.4,0.4
	c-3.2,0.1-2.8-1.9-2.8-3.9c0-14.6,0-29.3,0-43.9c0-14.3,0.1-28.6-0.1-42.9c-0.1-3.6,1-4.5,4.5-4.3c8.9,0.5,17.9-0.8,26.9,1.1
	c11.5,2.4,18.8,10.5,19.1,22.2C206.6,797.3,206.5,812.2,206.4,827.2z"/>
<path class="st0" d="M279.1,646.9c0-1.7,0.1-3.3,0-5c-0.8-11.8-7.3-20.4-17-22.5c-12.7-2.8-24.3,1.4-29.5,11.1
	c-4.2,7.9-4.5,16.5-3.4,25.3c1.7,13.1,9.5,20.6,22.2,21.3c13.9,0.8,23.6-6,26.7-18.8C279,654.5,279.3,650.7,279.1,646.9z
	 M270.1,657.7c-2.3,8.4-8.1,12.8-16.7,12.7c-9-0.2-13.9-4.2-15.9-13.3c-1.6-6.7-1.4-13.6,0.6-20.2c2.6-8.2,8.1-12.1,16.8-11.8
	c8.3,0.3,13.3,4.5,15.4,12.8c0.7,3.2,1,6.6,1,9.9C271.3,651.2,270.9,654.5,270.1,657.7z"/>
<path class="st0" d="M154.3,673.7c-3.6-8.6-5.5-18.2-13.1-25.1c8.6-5,11.6-10.7,9.7-18.2c-1.8-6.8-7.8-10.7-17.1-11
	c-4-0.1-8,0.2-12-0.1c-3.7-0.2-5,1.3-5,4.9c0.1,16.1,0.1,32.3,0,48.4c0,2.8,0.9,3.8,3.7,3.8c2.5,0,4-0.5,3.9-3.6
	c-0.2-6.1,0.1-12.3-0.1-18.5c-0.1-2.6,0.8-3.3,3.3-3.4c5.8-0.2,10,1.9,12.3,7.3c2.2,5.2,4.3,10.4,6.3,15.7c1.4,3.6,4.3,2.3,6.8,2.3
	C154.8,676.2,154.8,674.8,154.3,673.7z M135.1,644.4c-10.4,1.8-10.7,1.6-10.7-9.5c0-10.4,0.4-10.7,10.8-8.9c5.7,1,8.2,4,8.1,9.5
	C143.3,640.3,140.4,643.4,135.1,644.4z"/>
<path class="st0" d="M510,673.8c-3.6-8.6-5.5-18.2-13.1-25.2c0.5-0.3,0.9-0.5,1.3-0.8c7.1-4.1,9.8-9.2,8.6-16.3
	c-1.1-6.2-5.4-10.2-13.3-11.6c-5.4-1-11-0.2-16.4-0.5c-3.6-0.2-4.6,1.5-4.6,4.8c0.1,16.2,0.1,32.3,0,48.4c0,2.7,0.6,3.9,3.6,3.9
	s4.1-0.9,4-4c-0.2-6.1,0-12.3-0.1-18.5c0-2.1,0.5-2.9,2.7-3c6.4-0.4,10.2,1.4,12.8,7.2c2.3,5.1,4.3,10.4,6.3,15.7
	c1.4,3.6,4.3,2.4,6.8,2.4C510.3,676.3,510.4,675,510,673.8z M495,642.8c-1,0.6-2,1.1-3.2,1.4c-10.1,2.7-11.8,1.3-11.8-9.1v-1
	c0-8.8,0-8.8,7.2-8.5c8.6,0.3,12.3,3.8,11.7,10.7C498.7,638.9,497.3,641.4,495,642.8z"/>
<path class="st0" d="M632.2,671.6c-5.9-16.2-11.8-32.4-17.5-48.7c-1.2-3.2-3-3.8-6-3.8s-4.9,0.6-6,3.8
	c-5.7,16.3-11.6,32.5-17.4,48.7c-1.6,4.4-0.7,5.2,3.9,4.7c3-0.3,3.1-2.5,3.8-4.5c3.7-10.6,3.7-10.7,14.7-10.6
	c4.1,0,9.2-1.7,12.1,0.7c2.7,2.1,3.2,7,4.4,10.8c0.8,2.7,2.2,4,4.9,3.5C633.7,677,633.3,674.7,632.2,671.6z M598.8,655
	c3.1-9.1,6.2-18.1,9.7-28l9.8,28H598.8z"/>
<path class="st0" d="M879.8,671.6c-5.8-16.2-11.7-32.4-17.4-48.7c-1.1-3.2-3-4.1-6.2-3.6c-3-0.8-4.6,0.7-5.7,3.7
	c-5.7,16.2-11.7,32.5-17.4,48.7c-1.5,4.3-0.6,5.2,4,4.7c2.7-0.3,2.9-2.2,3.6-4.1c3.9-11,3.9-11,15.4-11c11.7,0,11.7,0,15.8,11.1
	c0.2,0.6,0.4,1.3,0.7,1.9c1.5,3.4,4.7,2.4,6.9,1.8C882.2,675.4,880.3,673.1,879.8,671.6z M846.4,655c3.2-9.2,6.3-18.1,9.7-28l9.8,28
	H846.4z"/>
<path class="st0" d="M18.8,619.6c-4.4-0.4-9,0-13.4-0.3c-3.9-0.2-5.4,1.2-5.3,5.1c0.2,8,0,15.9,0,23.9c0,8,0.1,15.9-0.1,23.9
	c-0.1,2.9,0.6,4.2,3.8,4.2c3.2,0,4-1.3,3.8-4.2c-0.2-2.7,0-5.3,0-8c0-9.3,0-9.3,9.5-9.9c0.5-0.1,1,0,1.5-0.1
	c10-1.1,16.5-8.4,16.4-18.5C34.8,626.6,28.9,620.6,18.8,619.6z M15.3,648.2c-0.7,0-1.3,0-2,0.1c-4.7,0.8-6.7-0.9-5.9-5.8
	c0.2-1.8,0.2-3.6,0.1-5.4c0-1-0.3-2.1,0-3c1.3-2.7-3.1-7.6,2.6-8.4c9.2-1.3,14.8,1.5,16.3,7.6C28.4,641.6,23.8,647.9,15.3,648.2z"/>
</svg>
