<?xml version="1.0" encoding="utf-8"?>
<!-- Generator: Adobe Illustrator 26.0.1, SVG Export Plug-In . SVG Version: 6.00 Build 0)  -->
<svg version="1.1" id="Layer_1" xmlns="http://www.w3.org/2000/svg" xmlns:xlink="http://www.w3.org/1999/xlink" x="0px" y="0px"
	 viewBox="0 0 512 512" style="enable-background:new 0 0 512 512;" xml:space="preserve">
<style type="text/css">
	.st0{clip-path:url(#SVGID_00000183211129260731638560000008118304759311015317_);}
	.st1{fill:#BF9266;}
	.st2{clip-path:url(#SVGID_00000136380395030517162940000017466825396619802027_);}
	.st3{fill-rule:evenodd;clip-rule:evenodd;fill:url(#XMLID_00000154406992819106044910000018192883891968018110_);}
	.st4{opacity:0.5;fill-rule:evenodd;clip-rule:evenodd;fill:#94F3FF;}
	.st5{fill:#F7931E;}
	.st6{fill:#FBE159;}
	.st7{fill:#FADA54;}
	
		.st8{clip-path:url(#XMLID_00000007399708579819891690000001771435193034813316_);fill:url(#SVGID_00000087412986165103191060000005852181844767122584_);}
	.st9{clip-path:url(#XMLID_00000044872804821485781390000010366448283897438863_);}
	.st10{fill-rule:evenodd;clip-rule:evenodd;fill:url(#SVGID_00000075143536731264464770000004782981778315237305_);}
	.st11{fill-rule:evenodd;clip-rule:evenodd;fill:url(#SVGID_00000142872671126794131170000018020265471189161646_);}
	.st12{fill-rule:evenodd;clip-rule:evenodd;fill:url(#SVGID_00000058584109294468980080000010688529583030944698_);}
	
		.st13{fill-rule:evenodd;clip-rule:evenodd;fill:url(#SVGID_00000160181598308230483890000005822726154935657896_);filter:url(#Adobe_OpacityMaskFilter);}
	.st14{mask:url(#id0_00000171700594966664731960000016415830136984758165_);fill-rule:evenodd;clip-rule:evenodd;fill:#A7DE38;}
	
		.st15{fill-rule:evenodd;clip-rule:evenodd;fill:url(#SVGID_00000178894907307380935350000004050092805283619212_);filter:url(#Adobe_OpacityMaskFilter_00000070091910001801982210000014547940774314388879_);}
	.st16{mask:url(#id2_00000069378933301809683780000013401124640320884628_);fill-rule:evenodd;clip-rule:evenodd;fill:#A7DE38;}
	.st17{fill:#1A130D;}
	.st18{fill:#FFFFFF;}
</style>
<g>
	<g>
		<defs>
			<rect id="SVGID_1_" y="50.5" width="512" height="296.1"/>
		</defs>
		<clipPath id="SVGID_00000182515656326034912650000014155318700364292751_">
			<use xlink:href="#SVGID_1_"  style="overflow:visible;"/>
		</clipPath>
		<g style="clip-path:url(#SVGID_00000182515656326034912650000014155318700364292751_);">
			<path class="st1" d="M444.7,295c-21.9,83.7-98.1,145.4-188.6,145.4c-93.4,0-171.5-65.7-190.5-153.5
				c-2.9-13.4,82.9,13.7,190.5,13.7S448.9,279.2,444.7,295z"/>
			<g>
				<defs>
					<path id="SVGID_00000116217289531590021320000008303676288441206205_" d="M451.1,245.5c0,107.7-87.3,22.5-195,22.5
						s-200.6,74.8-195-22.5c0-107.7,87.3-195,195-195S451.1,137.8,451.1,245.5z"/>
				</defs>
				<clipPath id="SVGID_00000021820272751296639700000004955901727040306571_">
					<use xlink:href="#SVGID_00000116217289531590021320000008303676288441206205_"  style="overflow:visible;"/>
				</clipPath>
				<g style="clip-path:url(#SVGID_00000021820272751296639700000004955901727040306571_);">
					
						<linearGradient id="XMLID_00000093158358021114122340000004672045917286015617_" gradientUnits="userSpaceOnUse" x1="61.1651" y1="245.4962" x2="451.0773" y2="245.4962">
						<stop  offset="0" style="stop-color:#1B80F1"/>
						<stop  offset="1" style="stop-color:#27BAFA"/>
					</linearGradient>
					
						<circle id="XMLID_00000042697426478177719460000018199782788363895712_" style="fill-rule:evenodd;clip-rule:evenodd;fill:url(#XMLID_00000093158358021114122340000004672045917286015617_);" cx="256.1" cy="245.5" r="195"/>
					<path id="XMLID_00000128483871083439056150000011319046504154622892_" class="st4" d="M256.1,50.5c-107.7,0-195,87.3-195,195
						c0,1.6,0,3.2,0.1,4.7C86.8,154.3,174.3,83.7,278.3,83.7c49.6,0,95.4,16.1,132.6,43.3C375.3,80.5,319.2,50.5,256.1,50.5z"/>
					<path id="XMLID_00000109751165450444501000000015271901428820027266_" class="st4" d="M256.1,50.5c-55.7,0-106,23.4-141.6,60.9
						c32.1-17.7,69-27.8,108.3-27.8c9.4,0,18.6,0.6,27.7,1.7c104.2,12.8,186.3,96.9,196,202c3-13.5,4.5-27.5,4.5-41.9
						c0-44.6-15-85.7-40.2-118.5C375.3,80.5,319.2,50.5,256.1,50.5z"/>
				</g>
			</g>
			<path class="st5" d="M383.3,203.7c-1,0-2,0-3.1,0c1.2-0.7,2.1-1.2,2.6-1.5c24.8-14.5,35.7-57.1,34.6-59s-43.6-13.4-68.4,1.1
				c-0.5,0.3-1.1,0.6-1.6,0.9c0.4-0.7,0.7-1.3,0.9-1.6c14.2-24.9,2.5-67.3,0.5-68.4c-2-1.1-44.5,10.2-58.7,35.1
				c-0.2,0.3-0.4,0.6-0.6,1c0-0.5,0-0.8,0-1.1c0-28.7-31.3-59.6-33.5-59.6c-2.2,0-33.5,30.9-33.5,59.6c0,0.6,0,1.3,0,2
				c-0.4-0.7-0.8-1.3-1-1.7c-14.3-24.8-56.9-36-58.8-34.9c-1.9,1.1-13.6,43.6,0.7,68.4c0.2,0.3,0.4,0.7,0.6,1
				c-0.4-0.2-0.7-0.4-1-0.6c-24.8-14.4-67.3-3-68.4-1.1c-1.1,1.9,9.8,44.6,34.6,59c0.8,0.5,1.7,1,2.6,1.5c-1.4,0-2.4,0-3.1,0
				c-28.7,0-59.6,31.3-59.6,33.5c0,2.2,30.9,33.5,59.6,33.6c17.8,0,51.5-0.5,51.5-0.5l0-53.4l20.4-35l35-20.2h40.4l35,20.1
				l20.5,35.1l0.1,53.4c0,0,45.7,0.5,51.5,0.5c28.7,0,59.6-31.3,59.6-33.6C443,235,412,203.7,383.3,203.7z"/>
			<g>
				<path class="st6" d="M256.1,68.7c-1.2,0-25.5,19.5-25.5,43.5c0,16.5,5.7,32.1,10.5,31.4c9-1.4,15-1.4,15-1.4s6,0,15,1.4
					c4.8,0.7,10.5-14.9,10.5-31.4C281.6,88.2,257.3,68.7,256.1,68.7z"/>
				<path class="st6" d="M339.9,91.1c-1-0.6-31.8,4.2-43.7,25.1c-8.2,14.3-11,30.7-6.5,32.4c8.5,3.3,13.7,6.2,13.7,6.2
					s5.2,3,12.3,8.7c3.8,3,16.5-7.7,24.7-22C352.4,120.6,341,91.6,339.9,91.1z"/>
				<path class="st6" d="M376.8,195.4c20.6-12.2,25-43.1,24.4-44.1c-0.6-1-29.8-12-50.4,0.3c-14.2,8.4-24.7,21.3-21.6,25
					c5.8,7,8.9,12.2,8.9,12.2s3.1,5.2,6.4,13.6C346.2,206.9,362.6,203.9,376.8,195.4z"/>
				<path class="st6" d="M381.2,211.5c-16.5,0.1-32.1,5.8-31.3,10.6c1.4,9,1.4,15,1.4,15s0,6-1.4,15c-0.7,4.8,14.9,10.4,31.4,10.4
					c24-0.1,43.4-24.4,43.4-25.6C424.8,235.7,405.2,211.4,381.2,211.5z"/>
				<path class="st6" d="M131,211.8c-24,0-43.5,24.3-43.5,25.4c0,1.2,19.5,25.5,43.4,25.5c16.5,0,32.1-5.7,31.4-10.5
					c-1.4-9-1.4-15-1.4-15s0-6,1.4-15C163.1,217.5,147.5,211.8,131,211.8z"/>
				<path class="st6" d="M161,152.2c-20.7-12.1-49.8-1-50.4,0c-0.6,1,3.9,31.8,24.6,44c14.2,8.3,30.6,11.3,32.4,6.8
					c3.3-8.5,6.4-13.6,6.4-13.6s3-5.2,8.8-12.2C185.8,173.3,175.2,160.5,161,152.2z"/>
				<path class="st6" d="M171.8,91.4c-1,0.6-12.3,29.6-0.3,50.4c8.2,14.3,21,25,24.8,21.9c7.1-5.7,12.3-8.7,12.3-8.7s5.2-3,13.7-6.3
					c4.5-1.7,1.6-18.1-6.6-32.4C203.6,95.5,172.8,90.8,171.8,91.4z"/>
			</g>
			<circle class="st7" cx="256.1" cy="237.4" r="82.4"/>
			<g>
				<defs>
					<circle id="XMLID_00000133527055031545723040000002936469044443735459_" cx="256.1" cy="245.5" r="195"/>
				</defs>
				<clipPath id="XMLID_00000180339619713010592270000008134002020214410664_">
					<use xlink:href="#XMLID_00000133527055031545723040000002936469044443735459_"  style="overflow:visible;"/>
				</clipPath>
				
					<linearGradient id="SVGID_00000010282112076958938680000006891727963616364165_" gradientUnits="userSpaceOnUse" x1="64.9582" y1="352.9768" x2="449.2296" y2="352.9768">
					<stop  offset="0" style="stop-color:#1297E0"/>
					<stop  offset="1" style="stop-color:#39D5FF"/>
				</linearGradient>
				
					<path style="clip-path:url(#XMLID_00000180339619713010592270000008134002020214410664_);fill:url(#SVGID_00000010282112076958938680000006891727963616364165_);" d="
					M66.6,280.4c-12,27.5,42.3,136.3,137.3,160.1c68.1,17,162.7-12.6,185.9-28.7c17.5-2.4,46.3-76.3,49.2-98.3
					c4.8-12.8,8.2-26.2,10.2-40.2C392.1,262.1,128.7,247.8,66.6,280.4z"/>
			</g>
			<g>
				<defs>
					<circle id="XMLID_00000109019514046921926640000007282035256073588128_" cx="256.1" cy="245.5" r="195"/>
				</defs>
				<clipPath id="XMLID_00000169560039589197198220000006597909674692602289_">
					<use xlink:href="#XMLID_00000109019514046921926640000007282035256073588128_"  style="overflow:visible;"/>
				</clipPath>
				<g id="_1928479429984" style="clip-path:url(#XMLID_00000169560039589197198220000006597909674692602289_);">
					
						<linearGradient id="SVGID_00000113346363125014983580000010864298954641607832_" gradientUnits="userSpaceOnUse" x1="8113.5503" y1="-7864.8599" x2="6967.1431" y2="-4982.6167" gradientTransform="matrix(8.068039e-02 1.241079e-02 1.094676e-02 -7.116297e-02 -270.8479 -190.013)">
						<stop  offset="0" style="stop-color:#1297E0"/>
						<stop  offset="1" style="stop-color:#39D5FF"/>
					</linearGradient>
					<path style="fill-rule:evenodd;clip-rule:evenodd;fill:url(#SVGID_00000113346363125014983580000010864298954641607832_);" d="
						M293.2,307.5c19.4,12,31.9,23,35.2,36.5c3.5,14.1,0.6,26.9-15.2,40.2c-24.9,21-77,41-161.1,58.1l67.8,48.8
						c4.6,3.3,9.8,5.4,15.2,6.3c5.4,0.8,11,0.4,16.4-1.4l100-33c24-13.2,40.5-27.7,49.8-42.8c9.1-14.6,11.4-29.7,7.2-44.3
						c-4.2-14.9-4.3-27.6-21.6-41.1c-31.8-24.8-90-77.6-260.9-69.1C260,281.4,293.2,307.5,293.2,307.5z"/>
					
						<linearGradient id="SVGID_00000066473981230728953930000011556741033270159766_" gradientUnits="userSpaceOnUse" x1="8576.2617" y1="-7408.749" x2="7854.4858" y2="-5072.1167" gradientTransform="matrix(8.068039e-02 1.241079e-02 1.094676e-02 -7.116297e-02 -270.8479 -190.013)">
						<stop  offset="0" style="stop-color:#007C21"/>
						<stop  offset="1" style="stop-color:#99CC33"/>
					</linearGradient>
					<path style="fill-rule:evenodd;clip-rule:evenodd;fill:url(#SVGID_00000066473981230728953930000011556741033270159766_);" d="
						M128.2,265.7c163.1-12.4,237,38.7,259.4,56.2c20,15.6,32.8,33,37.9,50.9c5.2,18.3,2.4,37-8.7,54.9c-4,6.5-9.2,12.9-15.5,19.1
						l52.6-17.3c5.4-1.8,9.9-4.7,13.2-8.3l0,0c3.3-3.6,5.4-8.2,6.2-13.4l17.4-113.1C488.9,261.1,279.5,245.5,128.2,265.7z"/>
					
						<linearGradient id="SVGID_00000029032205915115174580000003793838882739157910_" gradientUnits="userSpaceOnUse" x1="5707.0098" y1="-7535.2446" x2="6511.1626" y2="-5602.1846" gradientTransform="matrix(8.068039e-02 1.241079e-02 1.094676e-02 -7.116297e-02 -270.8479 -190.013)">
						<stop  offset="0" style="stop-color:#007C21"/>
						<stop  offset="1" style="stop-color:#99CC33"/>
					</linearGradient>
					<path style="fill-rule:evenodd;clip-rule:evenodd;fill:url(#SVGID_00000029032205915115174580000003793838882739157910_);" d="
						M288,316.5c-42.1-26-125.7-49.1-238.2-64l-13.6,88.1c-0.8,5.2-0.1,10.2,1.9,14.6c2,4.5,5.5,8.5,10.1,11.9l0,0l87.8,63.2
						c88.4-17,141.9-36.7,166-57c11.3-9.5,15.5-18.9,13.3-27.8C313.2,336,303.7,326.2,288,316.5z"/>
					<defs>
						<filter id="Adobe_OpacityMaskFilter" filterUnits="userSpaceOnUse" x="49.9" y="252.4" width="266.3" height="177.9">
							<feColorMatrix  type="matrix" values="1 0 0 0 0  0 1 0 0 0  0 0 1 0 0  0 0 0 1 0"/>
						</filter>
					</defs>
					
						<mask maskUnits="userSpaceOnUse" x="49.9" y="252.4" width="266.3" height="177.9" id="id0_00000171700594966664731960000016415830136984758165_">
						
							<linearGradient id="SVGID_00000132078169337247037150000003242060963783220389_" gradientUnits="userSpaceOnUse" x1="8049.2598" y1="-5620.6138" x2="5027.6665" y2="-7286.8413" gradientTransform="matrix(8.068039e-02 1.241079e-02 1.094676e-02 -7.116297e-02 -270.8479 -190.013)">
							<stop  offset="0" style="stop-color:#FFFFFF"/>
							<stop  offset="1" style="stop-color:#FFFFFF;stop-opacity:0"/>
						</linearGradient>
						
							<polygon style="fill-rule:evenodd;clip-rule:evenodd;fill:url(#SVGID_00000132078169337247037150000003242060963783220389_);filter:url(#Adobe_OpacityMaskFilter);" points="
							49.9,252.1 324.9,294.4 300.1,455.5 25.1,413.2 						"/>
					</mask>
					<path class="st14" d="M288,316.5c-42.1-26-125.7-49.1-238.2-64c94.5,18.7,163.8,42.8,197.8,67c12.7,9,20,17.8,21.4,26
						c1.3,7.6-2.9,15.3-13.2,22.8c-21.9,15.8-68.7,29.6-144.9,39.1c-2.1,0.1-4.1,0.3-6.1,0.4l31.4,22.6c88.4-17,141.9-36.7,166-57
						c11.3-9.5,15.5-18.9,13.3-27.8C313.2,336,303.7,326.2,288,316.5L288,316.5z"/>
					<defs>
						
							<filter id="Adobe_OpacityMaskFilter_00000109712430031033768500000004486544847186938765_" filterUnits="userSpaceOnUse" x="302.4" y="279.4" width="180.9" height="167.4">
							<feColorMatrix  type="matrix" values="1 0 0 0 0  0 1 0 0 0  0 0 1 0 0  0 0 0 1 0"/>
						</filter>
					</defs>
					
						<mask maskUnits="userSpaceOnUse" x="302.4" y="279.4" width="180.9" height="167.4" id="id2_00000069378933301809683780000013401124640320884628_">
						
							<linearGradient id="SVGID_00000054973267344127139050000001836264415910357899_" gradientUnits="userSpaceOnUse" x1="7770.8003" y1="-5282.9814" x2="11299.3945" y2="-8060.6689" gradientTransform="matrix(8.068039e-02 1.241079e-02 1.094676e-02 -7.116297e-02 -270.8479 -190.013)">
							<stop  offset="0" style="stop-color:#FFFFFF"/>
							<stop  offset="1" style="stop-color:#FFFFFF;stop-opacity:0"/>
						</linearGradient>
						
							<polygon style="fill-rule:evenodd;clip-rule:evenodd;fill:url(#SVGID_00000054973267344127139050000001836264415910357899_);filter:url(#Adobe_OpacityMaskFilter_00000109712430031033768500000004486544847186938765_);" points="
							301.2,269.7 491.1,298.9 466.6,457.7 276.8,428.5 						"/>
					</mask>
					<path class="st16" d="M473.4,407.8l9.9-64c-31.5-47.6-102.7-68.5-180.9-63.7c38.1,12.2,62.8,24.4,85.2,41.8
						c20,15.6,32.8,33,37.9,50.9c5.2,18.3,2.4,37-8.7,54.9c-4,6.5-9.2,12.9-15.5,19.1l52.6-17.3c5.4-1.8,9.9-4.7,13.2-8.3l0,0
						C470.4,417.5,472.6,413,473.4,407.8L473.4,407.8z"/>
				</g>
			</g>
		</g>
	</g>
	<rect x="20.6" y="344.6" width="470.8" height="2"/>
	<rect x="20.6" y="420.9" width="470.8" height="2"/>
	<g>
		<path class="st17" d="M36.8,373.2c-0.6,0.3-1.3,0.4-1.9,0.4c-1.5,0-2.6-0.9-3.2-2.8c-0.2-0.5-0.3-0.9-0.3-1.2
			c0-0.3-0.1-0.6-0.1-0.9c0-1.5,0.9-2.6,2.6-3.4c3.4-1.4,6.8-2.5,10.4-3.3c3.5-0.8,7.1-1.3,10.6-1.3c1.7,0,3.3,0.2,5,0.5
			c1.6,0.4,3.1,1,4.4,1.8c1.3,0.9,2.3,2,3.1,3.5c0.8,1.5,1.2,3.3,1.2,5.5c0,1.5-0.3,3-0.9,4.5c-0.6,1.4-1.5,2.8-2.5,4.1
			c-1,1.3-2.2,2.5-3.5,3.7c-1.3,1.2-2.7,2.2-4.1,3.2c-1.4,1-2.8,1.8-4.1,2.6c-1.4,0.8-2.6,1.5-3.7,2.1c-0.9,0.5-1.4,1.1-1.4,1.7
			c0,0.7,0.5,1.2,1.5,1.6c3.5,1.2,7,2.4,10.6,3.4c3.6,1.1,7.3,2.3,11,3.6c1.7,0.6,2.6,1.6,2.6,3c0,0.6-0.2,1.3-0.6,2
			c-0.4,0.7-0.8,1.3-1.2,1.8c-0.9,1.4-2.1,2.1-3.5,2.1c-0.5,0-1.1-0.1-1.8-0.3c-2.1-0.8-4.3-1.6-6.7-2.5c-2.4-0.9-4.9-1.7-7.4-2.6
			c-2.5-0.9-5-1.7-7.4-2.5c-2.4-0.8-4.7-1.5-6.7-2.2c-0.7-0.2-1.2-0.3-1.5-0.3c-0.3,0-0.5,0.1-0.6,0.2c-0.1,0.1-0.2,0.3-0.2,0.7
			c0,0.1,0,0.2,0,0.4c0,0.1,0,0.3,0,0.5c0.1,0.5,0.2,1.1,0.4,1.9c0.1,0.8,0.3,1.6,0.4,2.4c0.1,0.8,0.3,1.6,0.4,2.4
			c0.1,0.8,0.1,1.4,0.1,1.9c0,1.8-1,3.1-3,3.8l-2.2,0.7c-0.3,0.1-0.6,0.2-0.9,0.2c-0.3,0-0.5,0.1-0.8,0.1c-1.8,0-2.8-1.1-3.1-3.3
			c-0.8-5.9-1.8-11.7-3-17.4c-1.2-5.7-2.6-11.4-4.1-17.1c-0.1-0.3-0.2-0.6-0.2-0.8c0-0.2,0-0.5,0-0.7c0-1.7,0.9-2.9,2.8-3.5
			c0.7-0.2,1.2-0.4,1.7-0.5c0.4-0.1,0.8-0.2,1.1-0.3c0.3-0.1,0.5-0.1,0.6-0.2c0.1,0,0.3,0,0.4,0c1.7,0,2.9,1,3.4,3
			c0.7,2.5,1.3,5,1.9,7.3c0.6,2.4,1.1,4.7,1.6,7c0.3,1.1,0.7,1.7,1.4,1.7c0.2,0,0.4,0,0.7-0.1c0.3-0.1,0.6-0.2,0.9-0.4
			c1-0.5,2.3-1.2,3.7-2c1.5-0.8,3-1.7,4.6-2.7c1.6-1,3.2-2,4.7-3.1c1.6-1.1,3-2.2,4.2-3.3c1.2-1.1,2.2-2.2,3-3.2
			c0.8-1.1,1.2-2.1,1.2-3c0-0.6-0.1-1.1-0.3-1.6c-0.2-0.5-0.5-0.9-1-1.3c-0.5-0.4-1.1-0.6-2-0.8s-1.9-0.3-3.1-0.3
			c-1.2,0-2.5,0.1-3.8,0.3c-1.3,0.2-2.7,0.5-4,0.8c-1.3,0.4-2.6,0.8-3.9,1.2C39.1,372.3,37.9,372.8,36.8,373.2z"/>
		<path class="st17" d="M82.2,360.6c-0.9,0-1.8-0.1-2.6-0.4c-0.8-0.3-1.5-0.7-2.1-1.2c-0.6-0.5-1.1-1.1-1.4-1.8
			c-0.4-0.7-0.5-1.4-0.5-2.2c0-1.4,0.5-2.5,1.6-3.3c1.1-0.8,2.5-1.3,4.3-1.3c0.8,0,1.6,0.2,2.4,0.5c0.8,0.3,1.5,0.7,2.1,1.2
			c0.6,0.5,1.1,1.1,1.4,1.8c0.4,0.7,0.5,1.4,0.5,2.2c0,1.4-0.5,2.5-1.5,3.3C85.3,360.2,83.9,360.6,82.2,360.6z M75.6,375.3
			c0-1.1,0.5-2.1,1.5-2.8c1-0.7,2.3-1.1,3.9-1.1c2.9,0,4.5,1,4.6,3c0.1,1.4,0.3,3,0.4,4.7c0.1,1.7,0.3,3.6,0.4,5.5
			c0.1,2,0.3,4,0.4,6c0.1,2.1,0.2,4.1,0.3,6.1c0.1,2,0.2,4,0.2,5.8c0.1,1.9,0.1,3.6,0.1,5.1c0,1.6-0.6,2.8-1.7,3.6
			c-1.1,0.8-2.8,1.2-5,1.2c-1,0-1.8-0.2-2.3-0.7c-0.6-0.5-0.8-1.2-0.8-2.1c0-4.5-0.1-8.6-0.3-12.5c-0.2-3.9-0.4-7.3-0.7-10.4
			c-0.2-3-0.5-5.6-0.7-7.6C75.7,377.4,75.6,376.1,75.6,375.3z"/>
		<path class="st17" d="M97,393.9c0-0.5,0.1-1.2,0.2-1.8c0.1-0.7,0.2-1.4,0.2-2.2c0-0.5-0.2-1-0.7-1.3c-0.5-0.3-1-0.6-1.6-1
			c-0.6-0.4-1.1-0.8-1.6-1.4c-0.5-0.5-0.7-1.3-0.7-2.4c0-0.7,0.2-1.5,0.6-2.2c0.4-0.7,1-1.4,1.8-2c1.9-1.4,3.9-2.7,5.9-3.8
			c2-1.1,4.1-2.1,6.1-2.9c2-0.8,4.1-1.4,6.1-1.8c2-0.4,3.9-0.6,5.8-0.6c3.1,0,6,0.6,8.7,1.7c2.7,1.1,5.1,2.7,7.1,4.7
			c2,2,3.6,4.3,4.8,7c1.2,2.7,1.8,5.5,1.8,8.5c0,3-0.6,5.8-1.9,8.4c-1.2,2.7-2.9,5-5,7c-2.1,2-4.6,3.6-7.4,4.8
			c-2.8,1.2-5.8,1.8-8.9,1.8c-3.1,0-5.9-0.5-8.5-1.5c-2.6-1-4.9-2.5-6.8-4.3c-1.9-1.8-3.4-4-4.5-6.5C97.6,399.6,97,396.8,97,393.9z
			 M119.4,405.7c1.4,0,2.8-0.3,4.2-0.8c1.5-0.5,2.8-1.3,4-2.4c1.2-1,2.2-2.3,3-3.8c0.8-1.5,1.2-3.2,1.2-5.1c0-1.9-0.4-3.7-1.1-5.4
			c-0.7-1.7-1.7-3.1-2.9-4.4c-1.2-1.2-2.7-2.2-4.4-2.9c-1.7-0.7-3.5-1.1-5.5-1.1c-3.6,0-6.3,0.9-8.2,2.8c-1.9,1.9-2.9,4.7-2.9,8.5
			c0,2.1,0.3,4,0.9,5.8c0.6,1.8,1.5,3.3,2.6,4.6c1.1,1.3,2.5,2.3,4,3.1C116,405.3,117.6,405.7,119.4,405.7z"/>
		<path class="st17" d="M203.7,374.6c0.1,0.1,0.3,0.1,0.6,0.1c0.7,0,1.1-0.5,1.1-1.4v-15c0-1.9,0.4-3.3,1.3-4.1
			c0.9-0.8,2.3-1.2,4.3-1.2c2,0,3.5,0.4,4.3,1.3c0.8,0.8,1.3,2.3,1.3,4.3c0,0.8,0,1.9-0.1,3.4c-0.1,1.5-0.2,3.2-0.3,5.1
			c-0.1,1.9-0.2,3.9-0.3,6.1c-0.1,2.2-0.1,4.3-0.1,6.5c0,3.3,0.2,6.1,0.7,8.5c0.5,2.4,1.1,4.4,1.9,5.9c0.8,1.6,1.8,2.7,3,3.5
			c1.2,0.8,2.5,1.1,3.9,1.1c0.8,0,1.5-0.1,2.2-0.3c0.7-0.2,1.4-0.3,2.3-0.3c0.6,0,1.2,0.3,1.6,1c0.4,0.7,0.7,1.5,0.7,2.4
			c0,0.8-0.2,1.6-0.7,2.4c-0.5,0.7-1.2,1.4-2,1.9c-0.9,0.5-1.8,1-3,1.3c-1.1,0.3-2.3,0.5-3.5,0.5c-2.6,0-5.1-0.8-7.3-2.4
			c-2.2-1.6-3.8-4.1-4.9-7.5c-0.1-0.5-0.3-0.8-0.5-0.8c-0.3,0-0.5,0.3-0.6,0.8c-0.9,2.4-2,4.5-3.4,6.4c-1.4,1.9-3,3.5-4.9,4.8
			c-1.9,1.3-3.9,2.4-6.1,3.1c-2.2,0.7-4.5,1.1-7,1.1c-2.6,0-4.9-0.4-7.1-1.3c-2.1-0.9-4-2-5.5-3.6c-1.5-1.5-2.8-3.3-3.6-5.4
			c-0.9-2.1-1.3-4.3-1.3-6.7c0-3.1,0.6-6,1.9-8.8c1.3-2.7,3-5.1,5.2-7.2c2.2-2,4.8-3.7,7.7-4.9c2.9-1.2,6.1-1.8,9.4-1.8
			c1.4,0,2.8,0.1,4.3,0.3C200.4,373.8,202,374.1,203.7,374.6z M189.8,404.2c1.8,0,3.5-0.4,4.9-1.2c1.4-0.8,2.7-1.8,3.8-3.1
			c1.1-1.2,2.1-2.6,2.8-4.1c0.8-1.5,1.4-3,1.9-4.4c0.5-1.4,0.8-2.7,1.1-3.8c0.2-1.1,0.3-1.9,0.3-2.4c0-0.4-0.1-0.7-0.3-0.9
			c-0.2-0.3-0.5-0.5-0.9-0.7c-0.9-0.2-1.8-0.4-2.7-0.6c-0.9-0.2-1.9-0.3-2.8-0.5c-0.9-0.1-1.8-0.2-2.6-0.3c-0.8-0.1-1.6-0.1-2.2-0.1
			c-1.9,0-3.7,0.3-5.3,0.9c-1.6,0.6-2.9,1.4-4,2.5c-1.1,1.1-2,2.3-2.6,3.8c-0.6,1.5-0.9,3.1-0.9,4.8c0,1.5,0.2,2.9,0.7,4.2
			c0.5,1.2,1.1,2.3,1.9,3.2c0.8,0.9,1.8,1.5,3,2C187.1,403.9,188.4,404.2,189.8,404.2z"/>
		<path class="st17" d="M230,393.9c0-0.5,0.1-1.2,0.2-1.8c0.1-0.7,0.2-1.4,0.2-2.2c0-0.5-0.2-1-0.7-1.3c-0.5-0.3-1-0.6-1.6-1
			c-0.6-0.4-1.1-0.8-1.6-1.4c-0.5-0.5-0.7-1.3-0.7-2.4c0-0.7,0.2-1.5,0.6-2.2c0.4-0.7,1-1.4,1.8-2c1.9-1.4,3.9-2.7,5.9-3.8
			c2-1.1,4.1-2.1,6.1-2.9c2-0.8,4.1-1.4,6.1-1.8c2-0.4,3.9-0.6,5.8-0.6c3.1,0,6,0.6,8.7,1.7c2.7,1.1,5.1,2.7,7.1,4.7
			c2,2,3.6,4.3,4.8,7c1.2,2.7,1.8,5.5,1.8,8.5c0,3-0.6,5.8-1.9,8.4c-1.2,2.7-2.9,5-5,7c-2.1,2-4.6,3.6-7.4,4.8
			c-2.8,1.2-5.8,1.8-8.9,1.8c-3.1,0-5.9-0.5-8.5-1.5c-2.6-1-4.9-2.5-6.8-4.3c-1.9-1.8-3.4-4-4.5-6.5
			C230.5,399.6,230,396.8,230,393.9z M252.4,405.7c1.4,0,2.8-0.3,4.2-0.8c1.5-0.5,2.8-1.3,4-2.4c1.2-1,2.2-2.3,3-3.8
			c0.8-1.5,1.2-3.2,1.2-5.1c0-1.9-0.4-3.7-1.1-5.4c-0.7-1.7-1.7-3.1-2.9-4.4c-1.2-1.2-2.7-2.2-4.4-2.9c-1.7-0.7-3.5-1.1-5.5-1.1
			c-3.6,0-6.3,0.9-8.2,2.8c-1.9,1.9-2.9,4.7-2.9,8.5c0,2.1,0.3,4,0.9,5.8c0.6,1.8,1.5,3.3,2.6,4.6c1.1,1.3,2.5,2.3,4,3.1
			C248.9,405.3,250.6,405.7,252.4,405.7z"/>
		<path class="st17" d="M351.2,383.6c-0.4,0-0.7,0.3-1,0.9c-1.2,2.4-2.5,4.5-3.9,6.5c-1.4,1.9-2.7,3.6-4.1,4.9
			c-1.4,1.4-2.8,2.4-4.1,3.1c-1.4,0.7-2.6,1.1-3.8,1.1c-1.2,0-2.2-0.2-3.2-0.7c-1-0.5-2-1.4-3.2-2.8c-1.1-1.4-2.5-3.3-3.9-5.8
			c-1.5-2.5-3.3-5.6-5.4-9.6c-0.4-0.6-0.7-1.1-1.1-1.4c-0.4-0.3-0.7-0.5-1-0.5c-0.4,0-0.8,0.4-1.2,1.3c-0.4,0.9-0.7,2.1-0.9,3.7
			c-0.3,1.6-0.5,3.5-0.6,5.8c-0.1,2.2-0.2,4.7-0.2,7.4c0,1.6,0.1,3.2,0.3,4.8c0.2,1.6,0.3,3.3,0.3,5c0,0.6-0.2,1.1-0.5,1.6
			c-0.3,0.5-0.7,0.9-1.3,1.3c-0.5,0.4-1.2,0.7-1.9,0.9c-0.7,0.2-1.5,0.3-2.3,0.3c-1.6,0-2.8-1-3.5-2.9c-0.7-1.9-1.1-5-1.1-9.3
			c0-5.4,0.3-10.3,0.9-14.7c0.6-4.4,1.5-8.2,2.6-11.3c1.1-3.1,2.4-5.6,4-7.3c1.5-1.7,3.2-2.6,5.2-2.6c1.7,0,3.3,1,4.8,2.9
			c1.5,1.9,3.2,5,5,9.3c0.7,1.7,1.5,3.4,2.3,4.9c0.8,1.5,1.6,2.8,2.5,3.9c0.8,1.1,1.6,2,2.4,2.6c0.8,0.6,1.5,0.9,2.1,0.9
			c0.6,0,1.2-0.1,1.8-0.4c0.6-0.3,1.2-0.9,1.9-1.8c0.7-0.9,1.6-2.3,2.6-4c1-1.8,2.2-4.1,3.7-7.1c0.8-1.5,1.5-2.8,2.1-3.9
			c0.6-1,1.2-1.9,1.8-2.5c0.6-0.6,1.3-1.1,1.9-1.4c0.7-0.3,1.4-0.4,2.3-0.4c1,0,2,0.5,3,1.6c1,1.1,1.9,2.5,2.8,4.3
			c0.9,1.8,1.8,3.8,2.7,6.2c0.9,2.4,1.7,4.8,2.5,7.4c0.8,2.6,1.6,5.2,2.4,7.9c0.8,2.7,1.6,5.2,2.3,7.6c0.2,0.7,0.3,1.2,0.4,1.5
			c0.1,0.3,0.1,0.6,0.1,1c0,0.5-0.2,1.1-0.5,1.6c-0.3,0.5-0.8,1-1.3,1.4c-0.5,0.4-1.2,0.8-1.9,1c-0.7,0.3-1.4,0.4-2.1,0.4
			c-0.9,0-1.6-0.1-2.1-0.3c-0.5-0.2-0.9-0.6-1.2-1.1c-0.2-0.3-0.4-1.1-0.8-2.3c-0.4-1.3-0.8-2.7-1.4-4.5c-0.5-1.7-1.1-3.6-1.7-5.5
			c-0.6-1.9-1.3-3.7-1.9-5.3c-0.6-1.6-1.2-3-1.8-4.1C352.1,384.1,351.6,383.6,351.2,383.6z"/>
		<path class="st17" d="M414.1,399.3c0.9-0.8,1.9-1.2,2.8-1.2c0.5,0,1,0.1,1.4,0.4c0.4,0.3,0.9,0.7,1.4,1.2c0.5,0.7,0.8,1.3,1,1.8
			c0.2,0.5,0.3,0.9,0.3,1.4c0,1-0.5,1.9-1.5,2.8c-1.5,1.3-3.2,2.4-5,3.5c-1.8,1-3.7,1.9-5.7,2.6c-2,0.7-4,1.2-6.1,1.6
			c-2.1,0.4-4.2,0.6-6.2,0.6c-2.6,0-5.1-0.3-7.4-1c-2.3-0.7-4.3-1.6-6.1-2.8c-1.8-1.2-3.3-2.7-4.5-4.4c-1.2-1.7-2.1-3.7-2.6-5.8
			c-0.3-0.9-0.6-1.5-0.8-1.8c-0.2-0.3-0.6-0.4-1.2-0.4c-1.2,0-2.1-0.3-2.8-0.9c-0.6-0.6-1-1.4-1-2.5c0-0.5,0-0.7,0.1-0.9l0.1-1
			c0.2-1.2,0.5-2,0.9-2.5c0.5-0.5,1.2-0.8,2.2-0.8h0.7c1.4,0,2.3-0.6,2.9-1.9c1-2.2,2.3-4.3,3.8-6.1c1.5-1.8,3.3-3.4,5.2-4.7
			c1.9-1.3,4-2.3,6.2-3c2.2-0.7,4.5-1.1,6.7-1.1c2.4,0,4.6,0.3,6.7,1c2.1,0.7,3.9,1.7,5.4,2.9c1.5,1.2,2.8,2.7,3.7,4.3
			c0.9,1.6,1.3,3.4,1.3,5.3c0,1.3-0.3,2.5-0.8,3.6c-0.5,1.1-1.3,2.1-2.2,2.9c-1,0.8-2.1,1.5-3.5,2c-1.4,0.5-2.9,0.9-4.7,1l-16.8,1.7
			c-0.6,0-1.2,0.2-1.6,0.5c-0.4,0.3-0.6,0.8-0.6,1.3c0,0.8,0.3,1.6,0.9,2.4c0.6,0.8,1.5,1.5,2.5,2.1c1,0.6,2.3,1.1,3.6,1.4
			c1.4,0.4,2.8,0.5,4.2,0.5c1.4,0,2.8-0.1,4.3-0.4c1.5-0.3,2.9-0.7,4.4-1.2c1.4-0.5,2.8-1.1,4.2-1.9
			C411.7,401.1,412.9,400.3,414.1,399.3z M403.4,386.8c0.5-0.1,0.9-0.3,1.3-0.7c0.4-0.4,0.5-0.8,0.5-1.4c0-0.5-0.2-0.9-0.5-1.4
			c-0.4-0.4-0.8-0.8-1.5-1.1c-0.6-0.3-1.3-0.6-2.1-0.8c-0.8-0.2-1.7-0.3-2.6-0.3c-1.3,0-2.7,0.2-4.1,0.6c-1.4,0.4-2.6,0.9-3.8,1.5
			c-1.1,0.6-2,1.3-2.8,2.1c-0.7,0.8-1.1,1.5-1.1,2.2c0,0.7,0.5,1.1,1.4,1.1c0.5,0,1.4-0.1,2.7-0.2c1.2-0.1,2.6-0.3,4.1-0.5
			c1.5-0.2,3-0.4,4.5-0.6C400.9,387.2,402.2,387,403.4,386.8z"/>
		<path class="st17" d="M431.4,360.6c-0.9,0-1.8-0.1-2.6-0.4c-0.8-0.3-1.5-0.7-2.1-1.2c-0.6-0.5-1.1-1.1-1.4-1.8
			c-0.4-0.7-0.5-1.4-0.5-2.2c0-1.4,0.5-2.5,1.6-3.3c1.1-0.8,2.5-1.3,4.3-1.3c0.8,0,1.6,0.2,2.4,0.5c0.8,0.3,1.5,0.7,2.1,1.2
			c0.6,0.5,1.1,1.1,1.4,1.8c0.4,0.7,0.5,1.4,0.5,2.2c0,1.4-0.5,2.5-1.5,3.3C434.5,360.2,433.1,360.6,431.4,360.6z M424.7,375.3
			c0-1.1,0.5-2.1,1.5-2.8c1-0.7,2.3-1.1,3.9-1.1c2.9,0,4.5,1,4.6,3c0.1,1.4,0.3,3,0.4,4.7c0.1,1.7,0.3,3.6,0.4,5.5
			c0.1,2,0.3,4,0.4,6c0.1,2.1,0.2,4.1,0.3,6.1c0.1,2,0.2,4,0.2,5.8c0.1,1.9,0.1,3.6,0.1,5.1c0,1.6-0.6,2.8-1.7,3.6
			c-1.1,0.8-2.8,1.2-5,1.2c-1,0-1.8-0.2-2.3-0.7c-0.6-0.5-0.8-1.2-0.8-2.1c0-4.5-0.1-8.6-0.3-12.5c-0.2-3.9-0.4-7.3-0.7-10.4
			c-0.2-3-0.5-5.6-0.7-7.6C424.8,377.4,424.7,376.1,424.7,375.3z"/>
		<path class="st17" d="M446.2,393.9c0-0.5,0.1-1.2,0.2-1.8c0.1-0.7,0.2-1.4,0.2-2.2c0-0.5-0.2-1-0.7-1.3c-0.5-0.3-1-0.6-1.6-1
			c-0.6-0.4-1.1-0.8-1.6-1.4c-0.5-0.5-0.7-1.3-0.7-2.4c0-0.7,0.2-1.5,0.6-2.2c0.4-0.7,1-1.4,1.8-2c1.9-1.4,3.9-2.7,5.9-3.8
			c2-1.1,4.1-2.1,6.1-2.9c2-0.8,4.1-1.4,6.1-1.8c2-0.4,3.9-0.6,5.8-0.6c3.1,0,6,0.6,8.7,1.7c2.7,1.1,5.1,2.7,7.1,4.7
			c2,2,3.6,4.3,4.8,7c1.2,2.7,1.8,5.5,1.8,8.5c0,3-0.6,5.8-1.9,8.4c-1.2,2.7-2.9,5-5,7c-2.1,2-4.6,3.6-7.4,4.8
			c-2.8,1.2-5.8,1.8-8.9,1.8c-3.1,0-5.9-0.5-8.5-1.5c-2.6-1-4.9-2.5-6.8-4.3c-1.9-1.8-3.4-4-4.5-6.5
			C446.7,399.6,446.2,396.8,446.2,393.9z M468.6,405.7c1.4,0,2.8-0.3,4.2-0.8c1.5-0.5,2.8-1.3,4-2.4c1.2-1,2.2-2.3,3-3.8
			c0.8-1.5,1.2-3.2,1.2-5.1c0-1.9-0.4-3.7-1.1-5.4c-0.7-1.7-1.7-3.1-2.9-4.4c-1.2-1.2-2.7-2.2-4.4-2.9c-1.7-0.7-3.5-1.1-5.5-1.1
			c-3.6,0-6.3,0.9-8.2,2.8c-1.9,1.9-2.9,4.7-2.9,8.5c0,2.1,0.3,4,0.9,5.8c0.6,1.8,1.5,3.3,2.6,4.6c1.1,1.3,2.5,2.3,4,3.1
			C465.1,405.3,466.8,405.7,468.6,405.7z"/>
	</g>
	<g>
		<path class="st18" d="M117.6,311.4c-3.8,0-6.8,3-6.8,6.7c0,3.8,3,6.8,6.8,6.8c1.9,0,3.9-0.9,5.3-2.3l1.9,2.1
			c-1.9,1.9-4.7,3.2-7.4,3.2c-5.6,0-10-4.2-10-9.8c0-5.5,4.4-9.6,10.1-9.6c2.7,0,5.4,1.1,7.3,3l-1.9,2.4
			C121.6,312.3,119.6,311.4,117.6,311.4z"/>
		<path class="st18" d="M147.9,318.2c0,5.5-4.4,9.7-10.2,9.7c-5.7,0-10.2-4.2-10.2-9.7c0-5.5,4.4-9.7,10.2-9.7
			C143.4,308.5,147.9,312.7,147.9,318.2z M130.8,318.2c0,3.8,3.2,6.8,6.9,6.8c3.8,0,6.8-3,6.8-6.8c0-3.8-3.1-6.8-6.8-6.8
			C134,311.4,130.8,314.4,130.8,318.2z"/>
		<path class="st18" d="M155.9,308.6v16.2h8.3v2.9h-11.5v-19.2H155.9z"/>
		<path class="st18" d="M182.4,308.6v2.9h-10.5v5.2h9.4v2.9h-9.4v5.3h10.8v2.9h-14v-19.2H182.4z M180.1,303.8l-3.3,2.7H174l2.9-4.1
			L180.1,303.8z"/>
		<path class="st18" d="M201.2,318.3h2.8v7.1c-1.9,1.5-4.8,2.5-7.5,2.5c-5.7,0-10.1-4.2-10.1-9.7c0-5.5,4.5-9.7,10.3-9.7
			c2.7,0,5.5,1,7.4,2.7l-1.8,2.4c-1.5-1.4-3.5-2.2-5.5-2.2c-3.9,0-7,3-7,6.8c0,3.8,3.1,6.8,7,6.8c1.4,0,3-0.5,4.4-1.3V318.3z"/>
		<path class="st18" d="M213.2,308.6v19.2h-3.2v-19.2H213.2z"/>
		<path class="st18" d="M238.3,318.2c0,5.5-4.4,9.7-10.2,9.7c-5.7,0-10.2-4.2-10.2-9.7c0-5.5,4.4-9.7,10.2-9.7
			C233.9,308.5,238.3,312.7,238.3,318.2z M221.3,318.2c0,3.8,3.2,6.8,6.9,6.8s6.8-3,6.8-6.8c0-3.8-3.1-6.8-6.8-6.8
			C224.4,311.4,221.3,314.4,221.3,318.2z"/>
		<path class="st18" d="M266.4,308.6v2.9h-10.5v5.2h9.4v2.9h-9.4v5.3h10.8v2.9h-14v-19.2H266.4z"/>
		<path class="st18" d="M278.1,311.5c-1.9,0-3.1,0.7-3.1,2c0,4.2,10.4,1.9,10.3,8.8c0,3.4-3,5.5-7.2,5.5c-3,0-5.9-1.2-7.8-3l1.4-2.8
			c2,1.8,4.4,2.8,6.5,2.8c2.2,0,3.6-0.8,3.6-2.3c0-4.3-10.4-1.9-10.4-8.7c0-3.3,2.8-5.3,7-5.3c2.5,0,4.9,0.8,6.7,2l-1.3,2.8
			C281.6,312,279.6,311.5,278.1,311.5z"/>
		<path class="st18" d="M303.6,308.6v2.9h-6.1v16.3h-3.2v-16.3h-6.1v-2.9H303.6z"/>
		<path class="st18" d="M318.2,323.4h-9.7l-1.8,4.3h-3.4l8.5-19.2h3.3l8.4,19.2H320L318.2,323.4z M317,320.6l-3.6-8.5l-3.6,8.5H317z
			"/>
		<path class="st18" d="M345.2,318.2c0,5.5-4.2,9.6-10,9.6h-7.8v-19.2h7.9C341,308.6,345.2,312.6,345.2,318.2z M341.9,318.2
			c0-3.9-2.9-6.7-6.7-6.7h-4.6v13.4h4.7C339.1,324.9,341.9,322.1,341.9,318.2z"/>
		<path class="st18" d="M358,325c3.1,0,5.1-1.9,5.1-5.2v-11.2h3.2v11.2c0,5-3.2,8.1-8.3,8.1c-5.2,0-8.4-3.1-8.4-8.1v-11.2h3.2v11.2
			C352.8,323.1,354.8,325,358,325z"/>
		<path class="st18" d="M384.1,323.4h-9.7l-1.8,4.3h-3.4l8.5-19.2h3.3l8.4,19.2H386L384.1,323.4z M382.9,320.6l-3.6-8.5l-3.6,8.5
			H382.9z"/>
		<path class="st18" d="M396.6,308.6v16.2h8.3v2.9h-11.5v-19.2H396.6z"/>
	</g>
	<g>
		<path class="st17" d="M34,439.8v2.5h-9v4.5h8v2.5h-8v4.5h9.3v2.5h-12v-16.4H34z"/>
		<path class="st17" d="M54.4,448c0,4.7-3.6,8.2-8.6,8.2h-6.7v-16.4h6.7C50.8,439.8,54.4,443.3,54.4,448z M51.6,448.1
			c0-3.4-2.5-5.8-5.8-5.8h-3.9v11.5h4C49.1,453.8,51.6,451.4,51.6,448.1z"/>
		<path class="st17" d="M65.6,453.9c2.7,0,4.3-1.6,4.3-4.4v-9.6h2.8v9.6c0,4.3-2.7,6.9-7.1,6.9s-7.2-2.6-7.2-6.9v-9.6h2.8v9.6
			C61.2,452.2,62.9,453.9,65.6,453.9z"/>
		<path class="st17" d="M85.4,442.2c-3.3,0-5.9,2.5-5.9,5.8c0,3.2,2.6,5.8,5.9,5.8c1.6,0,3.3-0.8,4.6-1.9l1.6,1.8
			c-1.7,1.6-4,2.7-6.4,2.7c-4.8,0-8.5-3.6-8.5-8.4c0-4.7,3.8-8.3,8.6-8.3c2.3,0,4.6,1,6.2,2.5l-1.6,2
			C88.8,443,87.1,442.2,85.4,442.2z"/>
		<path class="st17" d="M106.3,452.6H98l-1.6,3.7h-2.9l7.3-16.4h2.8l7.2,16.4h-3L106.3,452.6z M105.3,450.1l-3.1-7.3l-3.1,7.3H105.3
			z"/>
		<path class="st17" d="M123.1,459.3c0,1.4-1.1,2.2-2.5,2.2c-0.8,0-1.5-0.3-2.1-0.7l0.5-1.3c0.4,0.3,0.9,0.5,1.4,0.5
			c0.7,0,1.1-0.5,1.1-1c0-0.4-0.4-0.9-1.1-0.9c-0.3,0-0.6,0-0.8,0.1l0.8-2c-4.4-0.4-7.8-3.9-7.8-8.3c0-4.7,3.8-8.3,8.6-8.3
			c2.3,0,4.6,1,6.2,2.5l-1.6,2c-1.2-1.3-2.9-2.1-4.6-2.1c-3.3,0-5.9,2.5-5.9,5.8c0,3.2,2.6,5.8,5.9,5.8c1.6,0,3.3-0.8,4.6-1.9
			l1.6,1.8c-1.5,1.5-3.5,2.4-5.6,2.7l-0.5,1.1C122.5,457.6,123.1,458.3,123.1,459.3z"/>
		<path class="st17" d="M142.3,452.6H134l-1.6,3.7h-2.9l7.3-16.4h2.8l7.2,16.4h-3L142.3,452.6z M136.2,437.6h-1.7
			c0-2,0.8-3.1,2.2-3.1c1.3,0,2,1.3,2.8,1.3c0.6,0,0.9-0.4,0.9-1.2h1.7c0,2-0.7,3.1-2.1,3.1c-1.4,0-2-1.3-2.8-1.3
			C136.5,436.4,136.2,436.8,136.2,437.6z M141.3,450.1l-3.1-7.3l-3.1,7.3H141.3z"/>
		<path class="st17" d="M166.1,448c0,4.7-3.8,8.3-8.7,8.3c-4.9,0-8.7-3.6-8.7-8.3c0-4.7,3.8-8.3,8.7-8.3
			C162.3,439.8,166.1,443.3,166.1,448z M151.5,448c0,3.3,2.7,5.8,5.9,5.8c3.2,0,5.8-2.6,5.8-5.8c0-3.3-2.6-5.8-5.8-5.8
			C154.1,442.2,151.5,444.8,151.5,448z"/>
		<path class="st17" d="M194.1,448c0,4.7-3.6,8.2-8.6,8.2h-6.7v-16.4h6.7C190.6,439.8,194.1,443.3,194.1,448z M191.3,448.1
			c0-3.4-2.5-5.8-5.8-5.8h-3.9v11.5h4C188.9,453.8,191.3,451.4,191.3,448.1z"/>
		<path class="st17" d="M210.2,439.8v2.5h-9v4.5h8v2.5h-8v4.5h9.2v2.5h-12v-16.4H210.2z"/>
		<path class="st17" d="M231.1,442.2c-3.3,0-5.9,2.5-5.9,5.8c0,3.2,2.6,5.8,5.9,5.8c1.6,0,3.3-0.8,4.6-1.9l1.6,1.8
			c-1.7,1.6-4,2.7-6.4,2.7c-4.8,0-8.5-3.6-8.5-8.4c0-4.7,3.8-8.3,8.6-8.3c2.3,0,4.6,1,6.2,2.5l-1.6,2
			C234.5,443,232.8,442.2,231.1,442.2z"/>
		<path class="st17" d="M252,452.6h-8.3l-1.6,3.7h-2.9l7.3-16.4h2.8l7.2,16.4h-3L252,452.6z M251,450.1l-3.1-7.3l-3.1,7.3H251z"/>
		<path class="st17" d="M263.4,439.8l5.4,10.9l5.4-10.9h3.3v16.4H275l0-12.3l-5.2,10.6h-1.8l-5.2-10.6v12.3h-2.6v-16.4H263.4z"/>
		<path class="st17" d="M296.3,445.4c0,3.7-2.4,5.9-6.5,5.9h-3.8v5h-2.8v-16.4h6.6C294,439.8,296.3,441.9,296.3,445.4z M293.7,445.5
			c0-2.2-1.4-3.2-4-3.2h-3.7v6.5h3.7C292.3,448.8,293.7,447.7,293.7,445.5z"/>
		<path class="st17" d="M316.6,448c0,4.7-3.8,8.3-8.7,8.3s-8.7-3.6-8.7-8.3c0-4.7,3.8-8.3,8.7-8.3S316.6,443.3,316.6,448z
			 M301.9,448c0,3.3,2.7,5.8,5.9,5.8c3.2,0,5.8-2.6,5.8-5.8c0-3.3-2.6-5.8-5.8-5.8C304.6,442.2,301.9,444.8,301.9,448z"/>
		<path class="st17" d="M322.8,454.9c0,0.5-0.2,0.9-0.4,1.2l-1.3,2h-1.4l0.9-2c-0.4-0.3-0.6-0.7-0.6-1.2c0-0.9,0.6-1.5,1.5-1.5
			C322.1,453.4,322.8,454,322.8,454.9z"/>
		<path class="st17" d="M348.9,445.4c0,3.7-2.4,5.9-6.5,5.9h-3.8v5h-2.8v-16.4h6.6C346.5,439.8,348.9,441.9,348.9,445.4z
			 M346.2,445.5c0-2.2-1.4-3.2-4-3.2h-3.7v6.5h3.7C344.8,448.8,346.2,447.7,346.2,445.5z"/>
		<path class="st17" d="M355.8,439.8v16.4H353v-16.4H355.8z"/>
		<path class="st17" d="M372.7,439.8v2.5h-5.2v13.9h-2.8v-13.9h-5.2v-2.5H372.7z"/>
		<path class="st17" d="M385.5,452.6h-8.3l-1.6,3.7h-2.9l7.3-16.4h2.8l7.2,16.4h-3L385.5,452.6z M384.5,450.1l-3.1-7.3l-3.1,7.3
			H384.5z"/>
		<path class="st17" d="M396.4,439.8l8.8,11.8v-11.8h2.7v16.4h-2.7l-8.8-11.8v11.8h-2.8v-16.4H396.4z"/>
		<path class="st17" d="M424.9,448.2h2.4v6.1c-1.7,1.3-4.1,2.1-6.4,2.1c-4.9,0-8.6-3.6-8.6-8.3c0-4.7,3.8-8.3,8.8-8.3
			c2.3,0,4.7,0.9,6.3,2.3l-1.6,2c-1.3-1.2-3-1.9-4.7-1.9c-3.4,0-6,2.6-6,5.8c0,3.3,2.7,5.8,6,5.8c1.2,0,2.6-0.4,3.8-1.1V448.2z"/>
		<path class="st17" d="M443.3,452.6H435l-1.6,3.7h-2.9l7.3-16.4h2.8l7.2,16.4h-3L443.3,452.6z M442.2,450.1l-3.1-7.3l-3.1,7.3
			H442.2z"/>
		<path class="st17" d="M472.9,445.4c0,3.7-2.4,5.9-6.5,5.9h-3.8v5h-2.8v-16.4h6.6C470.5,439.8,472.9,441.9,472.9,445.4z
			 M470.2,445.5c0-2.2-1.4-3.2-4-3.2h-3.7v6.5h3.7C468.8,448.8,470.2,447.7,470.2,445.5z"/>
		<path class="st17" d="M487.5,456.3l-3-5c-0.2,0-0.5,0-0.8,0h-3.9v5H477v-16.4h6.7c4.2,0,6.6,2,6.6,5.6c0,2.6-1.2,4.5-3.4,5.3
			l3.7,5.5H487.5z M483.7,448.8c2.5,0,4-1.1,4-3.3c0-2.2-1.5-3.2-4-3.2h-3.9v6.5H483.7z"/>
	</g>
</g>
</svg>
