<?xml version="1.0" encoding="utf-8"?>
<!-- Generator: Adobe Illustrator 26.0.1, SVG Export Plug-In . SVG Version: 6.00 Build 0)  -->
<svg version="1.1" id="Layer_1" xmlns="http://www.w3.org/2000/svg" xmlns:xlink="http://www.w3.org/1999/xlink" x="0px" y="0px"
	 viewBox="0 0 512 128" style="enable-background:new 0 0 512 128;" xml:space="preserve">
<style type="text/css">
	.st0{fill:#11BB50;}
	.st1{fill:#1548C5;}
</style>
<g>
	<path class="st0" d="M141.6,87.3c0-9.8,0-19.5,0-29.3c0-1.5,0.3-2,1.9-2c12.7,0.1,25.4,0.1,38,0c1.6,0,2,0.5,1.9,2
		c-0.1,2.4-0.1,4.7,0,7.1c0.1,1.8-0.3,2.3-2.2,2.3c-8.6-0.1-17.1,0-25.7-0.1c-1.6,0-2.1,0.4-2.1,2.1c0.1,3.4,0.1,6.8,0,10.3
		c0,1.6,0.3,2.1,2.1,2.1c7.1-0.1,14.2,0,21.3-0.1c1.5,0,2.1,0.4,2,2c-0.1,2.6-0.1,5.1,0,7.7c0,1.4-0.3,1.9-1.8,1.9
		c-7.1-0.1-14.2,0-21.3-0.1c-1.8,0-2.3,0.5-2.2,2.2c0.1,3.3,0.1,6.6,0,9.8c0,1.5,0.3,2,1.9,2c8.7-0.1,17.4,0,26.1-0.1
		c1.6,0,2,0.4,1.9,2c-0.1,2.6-0.1,5.1,0,7.7c0,1.2-0.2,1.7-1.6,1.7c-12.9,0-25.8,0-38.7,0c-1.6,0-1.6-0.7-1.6-1.9
		C141.6,106.8,141.6,97.1,141.6,87.3z"/>
	<path class="st0" d="M253.2,78.9c0-6.9,0-13.8,0-20.7c0-1.4,0.4-1.8,1.8-1.7c2.8,0.1,5.6,0.1,8.4,0c1.5-0.1,1.8,0.5,1.8,1.9
		c-0.1,12.3-0.1,24.6-0.1,37c0,3.3,0.2,6.7,2.8,9.3c3.7,3.7,8.2,3.8,12.8,2.4c3.8-1.2,6.3-4.8,6.3-9.4c0.1-13,0.1-25.9,0-38.9
		c0-1.7,0.3-2.5,2.2-2.3c2.8,0.2,5.6,0.1,8.4,0c1,0,1.3,0.3,1.3,1.3c-0.1,13.9,0.2,27.7-0.3,41.6c-0.4,12.6-9.6,20.3-23,20
		c-7-0.1-13.4-1.9-17.9-7.8c-3.7-4.8-4.4-10.4-4.5-16.2C253.2,89.9,253.3,84.5,253.2,78.9L253.2,78.9z"/>
	<path class="st0" d="M509.8,86.6c0,9.8,0,19.6,0,29.5c0,1.5-0.3,2-1.9,1.9c-4.4-0.1-4.4,0-4.4-4.5c0-7.1,0-14.2,0-21.3
		c0-1.5-0.3-2.1-2-2.1c-9.2,0.1-18.4,0.1-27.6,0c-1.7,0-2.3,0.3-2.2,2.1c0.1,8,0,15.9,0.1,23.8c0,1.5-0.3,2-1.9,1.9
		c-4.4-0.1-4.4,0-4.4-4.3c0-18.7,0-37.3,0-56c0-1.6,0.3-2.1,2-2.1c4.3,0.1,4.3,0,4.3,4.2c0,7.4,0,14.9,0,22.3c0,1.5,0.2,2.1,1.9,2
		c9.4-0.1,18.8-0.1,28.2,0c1.3,0,1.7-0.3,1.7-1.7c-0.1-8.3,0-16.6-0.1-24.9c0-1.5,0.3-2,1.9-2c4.4,0.1,4.4,0,4.4,4.5V86.6z"/>
	<path class="st0" d="M362.8,86.8c0-9.7,0-19.3,0-29c0-1.7,0.3-2.2,2.1-2.2c12.1,0.1,24.1,0.1,36.1,0c1.5,0,2,0.3,2,1.9
		c-0.1,3.9,0,3.9-3.9,3.9c-9.4,0-18.8,0-28.2,0c-1.4,0-1.9,0.3-1.9,1.8c0.1,6.3,0.1,12.7,0,19c0,1.7,0.5,1.9,2,1.9
		c8.4-0.1,16.9,0,25.3-0.1c1.4,0,2.1,0.1,2,1.8c-0.1,4,0,4-4,4c-7.8,0-15.6,0-23.4,0c-1.4,0-1.9,0.3-1.9,1.8
		c0.1,6.2,0.1,12.4,0,18.6c0,1.7,0.5,1.9,2,1.9c10-0.1,19.9,0,29.9-0.1c1.5,0,2.1,0.3,2.1,2c-0.1,3.8,0,3.8-3.9,3.8
		c-11.2,0-22.4-0.1-33.6,0.1c-2.3,0-2.7-0.7-2.6-2.8C362.9,105.8,362.8,96.3,362.8,86.8z"/>
	<path class="st0" d="M454.7,72.7c-0.3,0-0.7,0-1,0c-3.2,0.4-5.1-0.3-6.8-3.7c-3.1-6.5-10.2-9.3-17.2-7.9c-6,1.2-10.8,6.5-11.4,13.6
		c-0.7,8.7-1.3,17.6,0.4,26.2c1.4,7.4,6.7,11.5,14.1,11.9c6.5,0.4,12.9-3.8,15.3-10.2c0.5-1.5,1.1-2,2.6-1.8c1.3,0.1,2.6,0,4,0
		c-0.5,6.9-6.5,14.3-14,16.5c-13.7,4.2-27.7-3-28.7-19.4c-0.5-8.6-1-17.3,0.4-25.9c1.7-10.5,10.5-17.4,21.2-17.2
		C444.2,55.2,453.4,62.7,454.7,72.7z"/>
	<path class="st0" d="M333.4,89.8c0,8.8,0,17.6,0,26.3c0,1.6-0.4,1.9-2,1.9c-4.4-0.1-4.4,0-4.4-4.3c0-16.8,0-33.6,0-50.3
		c0-1.5-0.3-2-1.9-2c-5.1,0.1-10.2,0-15.3,0.1c-1.3,0-1.8-0.3-1.8-1.7c0-4.1,0-4.1,4.1-4.1c12.7,0,25.4,0,38,0c1.6,0,2,0.4,1.9,2
		c-0.1,3.9,0,3.9-3.9,3.9c-4.4,0-8.8,0.1-13.2,0c-1.5,0-1.8,0.3-1.8,1.8C333.4,72.1,333.4,80.9,333.4,89.8z"/>
	<path class="st0" d="M447.7,28.1c2.4-5.8,4.7-11.4,6.9-16.9c0.5-1.2,1.1-2.2,2.7-2.3c2.9-0.2,3.3,0.1,3.3,3c0,6.3,0,12.7,0,19
		c0,1,0.1,1.9-1.4,1.9c-1.4,0-1.7-0.6-1.7-1.9c0-6.2,0-12.4,0-18.7c-0.8,0.4-0.8,1.2-1.1,1.8c-2.3,5.6-4.5,11.2-6.8,16.8
		c-0.4,1-0.6,1.9-2.1,1.9s-1.7-0.8-2.1-1.8c-2.2-5.6-4.4-11.3-6.7-17c-0.1-0.5-0.5-1-0.9-1.4c0,6.2,0,12.2,0,18.3
		c0,1.2-0.1,1.9-1.6,2c-1.7,0-1.5-0.9-1.5-2c0-6.3,0-12.7,0-19c0-1.1-0.5-2.5,1.3-2.9c2.2-0.5,4,0.2,4.7,2c2,4.9,3.9,9.8,5.9,14.7
		C447,26.3,447.3,27.1,447.7,28.1z"/>
	<path class="st0" d="M305.8,25.6c0,0.7,0,1.4,0,2.1c0,3.8,0,3.8-3.6,4.8c-6.7,1.8-12.6-0.8-14.8-6.6c-2.4-6.3,0.1-13.5,5.7-16.2
		c3.8-1.8,7.6-1.5,11.3,0.3c0.5,0.2,1,0.6,1.3,1c0.4,0.7,0.5,1.6,0,2.2c-0.5,0.7-1.1-0.1-1.6-0.4c-2.5-1.4-5.1-1.9-7.9-1.3
		c-4.7,1.1-7.3,6.4-6,11.9c1.3,5.4,5.9,8,11.1,6.3c0.6-0.2,1.3-0.3,1.3-1.1c0-1.9,0-3.8,0-5.6c0-0.9-0.7-0.7-1.2-0.7
		c-1.2,0-2.4,0-3.6,0c-1,0-1.3-0.5-1.3-1.4c0-0.9,0.4-1.2,1.3-1.2c2.2,0,4.3,0,6.5,0c1.1,0,1.5,0.5,1.5,1.5
		C305.8,22.7,305.8,24.2,305.8,25.6z"/>
	<path class="st0" d="M239.8,75.5c-0.3-4.9-2.1-9.3-5.6-12.9c-4.5-4.5-10.2-6.2-16.3-6.4c-7.2-0.3-14.4,0-21.5-0.1
		c-1.5,0-1.6,0.6-1.6,1.8c0,9.8,0,19.5,0,29.3c0,9.8,0,19.6,0,29.5c0,0.9-0.3,1.8,1.2,1.8c8.4-0.3,16.7,0.5,25.1-0.5
		c11.1-1.3,18.3-9,18.8-20.1C240.1,90.4,240.2,82.9,239.8,75.5z M227.7,95.9c0,6.8-3.4,10.5-10.1,11c-3.3,0.3-6.5,0.1-9.8,0.2
		c-1.3,0-1.2-0.8-1.2-1.6c0-6.1,0-12.3,0-18.4c0-6,0-12,0-18c0-1.5,0.4-1.9,1.9-1.8c3.7,0.2,7.5-0.3,11.3,0.5c4.8,1,7.9,4.4,8,9.3
		C227.8,83.4,227.8,89.6,227.7,95.9z"/>
	<path class="st0" d="M258.2,20.4c0-0.7,0-1.4,0-2.1c-0.3-4.9-3.1-8.5-7.1-9.4c-5.3-1.2-10.2,0.6-12.3,4.6
		c-1.8,3.3-1.9,6.9-1.4,10.6c0.7,5.5,4,8.6,9.3,8.9c5.8,0.3,9.9-2.5,11.2-7.9C258.1,23.6,258.2,22,258.2,20.4z M254.4,25
		c-1,3.5-3.4,5.4-7,5.3c-3.8-0.1-5.8-1.8-6.7-5.6c-0.7-2.8-0.6-5.7,0.3-8.5c1.1-3.4,3.4-5.1,7-4.9c3.5,0.1,5.6,1.9,6.4,5.4
		c0.3,1.3,0.4,2.8,0.4,4.1C254.9,22.2,254.7,23.6,254.4,25z"/>
	<path class="st0" d="M205.9,31.7c-1.5-3.6-2.3-7.6-5.5-10.5c3.6-2.1,4.9-4.5,4.1-7.6c-0.8-2.8-3.3-4.5-7.2-4.6c-1.7,0-3.3,0.1-5,0
		c-1.5-0.1-2.1,0.5-2.1,2.1c0,6.7,0,13.5,0,20.3c0,1.2,0.4,1.6,1.5,1.6c1,0,1.7-0.2,1.6-1.5c-0.1-2.6,0-5.1,0-7.7
		c0-1.1,0.3-1.4,1.4-1.4c2.4-0.1,4.2,0.8,5.1,3.1c0.9,2.2,1.8,4.4,2.6,6.6c0.6,1.5,1.8,1,2.8,1C206.1,32.7,206.1,32.1,205.9,31.7z
		 M197.9,19.4c-4.4,0.8-4.5,0.7-4.5-4c0-4.4,0.2-4.5,4.5-3.7c2.4,0.4,3.4,1.7,3.4,4C201.3,17.7,200.1,19,197.9,19.4z"/>
	<path class="st0" d="M354.8,31.7c-1.5-3.6-2.3-7.6-5.5-10.5c0.2-0.1,0.4-0.2,0.5-0.3c3-1.7,4.1-3.8,3.6-6.8
		c-0.5-2.6-2.3-4.3-5.6-4.9c-2.3-0.4-4.6-0.1-6.9-0.2c-1.5-0.1-1.9,0.6-1.9,2c0,6.8,0,13.5,0,20.3c0,1.1,0.3,1.6,1.5,1.6
		c1.3,0,1.7-0.4,1.7-1.7c-0.1-2.6,0-5.1,0-7.7c0-0.9,0.2-1.2,1.1-1.3c2.7-0.2,4.3,0.6,5.4,3c1,2.1,1.8,4.4,2.6,6.6
		c0.6,1.5,1.8,1,2.8,1C354.9,32.7,354.9,32.2,354.8,31.7z M348.5,18.7c-0.4,0.3-0.8,0.5-1.3,0.6c-4.2,1.1-4.9,0.5-4.9-3.8v-0.4
		c0-3.7,0-3.7,3-3.6c3.6,0.1,5.1,1.6,4.9,4.5C350,17.1,349.5,18.1,348.5,18.7z"/>
	<path class="st0" d="M405.9,30.8c-2.5-6.8-4.9-13.6-7.3-20.4c-0.5-1.3-1.3-1.6-2.5-1.6s-2.1,0.3-2.5,1.6
		c-2.4,6.8-4.9,13.6-7.3,20.4c-0.7,1.8-0.3,2.2,1.6,2c1.3-0.1,1.3-1,1.6-1.9c1.5-4.4,1.5-4.5,6.2-4.4c1.7,0,3.8-0.7,5.1,0.3
		c1.1,0.9,1.3,2.9,1.8,4.5c0.3,1.1,0.9,1.7,2.1,1.5C406.5,33,406.4,32.1,405.9,30.8z M391.9,23.8c1.3-3.8,2.6-7.6,4.1-11.7l4.1,11.7
		H391.9z"/>
	<path class="st0" d="M509.5,30.8c-2.4-6.8-4.9-13.6-7.3-20.4c-0.5-1.3-1.3-1.7-2.6-1.5c-1.3-0.3-1.9,0.3-2.4,1.5
		c-2.4,6.8-4.9,13.6-7.3,20.4c-0.6,1.8-0.3,2.2,1.7,2c1.1-0.1,1.2-0.9,1.5-1.7c1.6-4.6,1.6-4.6,6.4-4.6c4.9,0,4.9,0,6.6,4.6
		c0.1,0.3,0.2,0.5,0.3,0.8c0.6,1.4,2,1,2.9,0.8C510.5,32.4,509.7,31.4,509.5,30.8z M495.5,23.8c1.3-3.8,2.6-7.6,4.1-11.7l4.1,11.7
		H495.5z"/>
	<path class="st0" d="M149.2,9c-1.8-0.2-3.8,0-5.6-0.1c-1.6-0.1-2.3,0.5-2.2,2.1c0.1,3.3,0,6.7,0,10s0,6.7,0,10
		c0,1.2,0.3,1.8,1.6,1.8s1.7-0.5,1.6-1.8c-0.1-1.1,0-2.2,0-3.3c0-3.9,0-3.9,4-4.1c0.2,0,0.4,0,0.6,0c4.2-0.5,6.9-3.5,6.9-7.7
		C155.9,11.9,153.4,9.4,149.2,9z M147.8,21c-0.3,0-0.5,0-0.8,0c-2,0.3-2.8-0.4-2.5-2.4c0.1-0.8,0.1-1.5,0-2.3c0-0.4-0.1-0.9,0-1.3
		c0.5-1.1-1.3-3.2,1.1-3.5c3.8-0.5,6.2,0.6,6.8,3.2C153.2,18.2,151.3,20.9,147.8,21z"/>
</g>
<g>
	<path class="st0" d="M57.8,119.3c-26.9,0-50.1-19.4-54.9-45.8c-1.2-6.8-1.2-13.7,0-20.4c0.1-0.7,0.3-1,1.1-0.7
		c2.4,1,4.9,1.5,7.4,2.1c0.8,0.2,1,0.5,0.9,1.3C8,81,25.6,105.3,50.8,109.1c7.4,1.1,14.7,0.6,21.8-1.9c1-0.3,1.3,0,1.6,0.8
		c1,2.5,1.4,5.2,2.6,7.6c0.3,0.7-0.4,0.6-0.7,0.7c-2.9,1-5.8,1.8-8.9,2.3C64.1,119,61,119.3,57.8,119.3z"/>
	<path class="st1" d="M57.9,88.5c-13.5,0.1-24.6-10.8-24.7-24.3c0-2.7,0.4-5.3,1.2-7.8c0.2-0.5,0.4-0.8,1-0.7
		c8.7,0.9,17.2,2.6,25,6.8c7,3.7,12.5,9,17.2,15.2c0.4,0.5,0.4,0.9,0,1.4c-4.2,5.2-9.5,8.3-16.1,9.3c-0.6,0.1-1.3,0.2-1.9,0.2
		C59.1,88.5,58.5,88.5,57.9,88.5z"/>
	<path class="st1" d="M38.8,48.5c4.1-4.8,9.2-7.7,15.3-8.8c11.7-2,23.3,4.8,27.3,16c1.7,4.6,1.9,9.6,0.7,14.4
		c-0.1,0.3,0,0.8-0.5,0.9s-0.7-0.3-1-0.6c-3-3.2-6.1-6.4-9.5-9.1c-8-6.2-17.1-10-27.1-11.7c-1.6-0.3-3.2-0.6-4.7-0.9
		C39.1,48.7,38.9,48.6,38.8,48.5z"/>
	<path class="st0" d="M16.5,34.5c5.3-7.3,12.5-13.1,20.7-16.8c5.7-2.5,11.7-3.9,18-4.3c0.9-0.1,1.3,0.1,1.2,1.1
		c-0.2,3.4-0.4,6.8-0.5,10.2c0,0.9-0.7,0.8-1.2,0.8c-5.4,0.4-10.6,2-15.3,4.5c-4.8,2.5-9,6.1-12.3,10.4c-0.5,0.7-0.9,0.8-1.6,0.2
		C22.7,38.6,19.6,36.6,16.5,34.5z"/>
	<path class="st0" d="M56.5,128c-10.6-0.1-21.5-3-31.5-8.8c-0.8-0.5-1-0.8-0.3-1.5c0.6-0.7,1.2-1.5,1.6-2.3c0.4-0.7,0.8-0.7,1.4-0.3
		c5.7,3.4,12,5.7,18.5,7c24.6,4.8,49.9-6.7,62.4-28.5c0.2-0.3,0.4-0.7,0.6-1c0.2-0.4,0.5-0.5,0.9-0.3c0.2,0.1,0.3,0.2,0.5,0.3
		c1.1,0.5,2.9,0.7,3,1.6c0.1,1-1,2.2-1.7,3.2c-9.8,15.5-23.7,25.2-41.6,29.2C66.2,127.6,61.9,128,56.5,128z"/>
	<path class="st0" d="M56,107.9c-19.2,0-37.3-14.8-41.3-35.6c-1-5.2-1-10.6-0.1-15.9c0.1-0.8,0.5-0.9,1.1-0.8c0,0,0.1,0,0.1,0
		c1.1,0.2,2.4,0.3,3.2,0.9c0.9,0.8,0,2.1-0.1,3.1C16.7,79,29.2,97,48,101.8c7.3,1.9,15,1.7,22.2-0.7c0.8-0.3,1.2-0.2,1.4,0.7
		c0.2,0.9,0.6,1.8,1,2.6c0.5,0.8,0.1,1-0.7,1.3C67.4,107.2,62.7,107.9,56,107.9z"/>
	<path class="st0" d="M57.5,0c7.8,0,15.6,1.5,22.9,4.2c0.8,0.3,1.1,0.6,0.6,1.4s-0.7,1.8-1.1,2.7c-0.2,0.6-0.6,0.7-1.2,0.5
		c-7.4-2.9-15.4-4.2-23.3-3.9c-13.6,0.6-25.7,5.2-36.1,14c-1.9,1.6-3.6,3.2-5.2,5c-0.5,0.6-0.8,0.5-1.3,0c-0.7-0.8-1.5-1.5-2.3-2.2
		c-0.6-0.5-0.4-0.7,0-1.1C18.6,11.9,28.5,5.8,40,2.4C45.7,0.8,51.6,0,57.5,0z"/>
	<path class="st0" d="M113.8,64c0,2-0.2,4.6-0.5,7.2c-0.1,0.8-0.3,1.2-1.2,0.8c-2.3-0.9-4.8-1.4-7.2-1.9c-0.8-0.1-1.1-0.4-1-1.4
		c0.9-7.4,0-14.9-2.7-21.9c-0.4-0.9-0.1-1.2,0.7-1.4c2.4-0.8,4.5-2.1,6.7-3.2c0.8-0.4,1.1-0.3,1.4,0.5
		C112.5,49.3,113.8,56.2,113.8,64z"/>
	<path class="st1" d="M92.5,63.9c0,17.7-12.8,32.4-30.1,34.8c-15.4,2.2-30.7-6.6-36.7-21c-0.5-1.1,0.1-2,1.3-2.2
		c0.7,0,0.7,0.5,0.8,0.9c1.8,4.3,4.3,8.1,7.7,11.3C45,96.2,56,98.9,68.1,94.8s19.2-12.8,21.5-25.4C90.7,63.6,90,58,88,52.5
		c-0.3-0.9,0.5-2.1,1.5-2.2c0.5,0,0.5,0.4,0.6,0.7c1.2,2.9,1.9,5.9,2.3,9C92.4,61.3,92.5,62.6,92.5,63.9z"/>
	<path class="st0" d="M121.5,64c0,3.1-0.2,6.2-0.7,9.3c-0.1,0.6-0.1,0.9-0.9,0.6c-1-0.4-2.1-0.4-3.1-0.7c-0.7-0.3-0.8-0.5-0.7-1.2
		c1.9-14.9-1.3-28.7-9.7-41.2c-0.4-0.6-0.4-0.8,0.2-1.2c0.9-0.5,1.8-1.1,2.6-1.7c0.7-0.6,0.9-0.3,1.3,0.3c5.8,8.6,9.3,18,10.5,28.3
		C121.4,58.9,121.5,61.5,121.5,64z"/>
	<path class="st1" d="M23,62.7c0.5-16.3,13.1-30.6,29.2-32.9c13.1-1.9,23.9,2.4,32.5,12.5c0.3,0.3,1.3,0.7,0.4,1.4
		c-1.3,1.1-1.5,1.1-2.3,0.1c-6.9-8.2-15.7-12.3-26.4-12c-15,0.4-28.3,12.1-30.6,27c-0.2,1.5-0.5,3-0.4,4.6c0.1,1.5-0.9,0.9-1.6,1
		c-1,0.2-0.9-0.4-0.9-1.1C23.1,63.1,23,62.9,23,62.7z"/>
	<path class="st0" d="M101.6,89.4c-0.1,0.2-0.3,0.5-0.4,0.7c-3,4.9-6.8,9.2-11.3,12.8c-0.5,0.4-0.8,0.5-1.2,0
		c-2-2.6-4.1-5.2-6.2-7.7c-0.6-0.8-0.8-1.3,0.2-2c2.9-2.3,5.4-5,7.4-8.1c0.4-0.6,0.8-0.9,1.6-0.6c3,1.4,5.9,2.7,8.9,4
		C101,88.7,101.4,88.9,101.6,89.4z"/>
	<path class="st0" d="M79.5,12.8c0.8,0.3,1.5,0.6,2.2,0.9c7.9,3.8,14.8,9.3,20.2,16.2c0.4,0.5,0.5,0.8,0,1.3
		c-0.6,0.5-1.2,0.8-1.8,1.1c-0.5,0.2-0.8,0.2-1.1-0.2C93.6,25.3,86.8,20,79,16.5c-0.2-0.1-0.6-0.2-0.5-0.4c0.2-1,0.5-2.1,0.8-3.1
		C79.3,12.9,79.5,12.9,79.5,12.8z"/>
	<path class="st0" d="M102.2,64c0,1.6,0,3.1-0.2,4.7c0,0.5-0.2,0.7-0.7,0.4c-1-0.6-2.2-0.7-3.3-1c-0.6-0.2-0.7-0.4-0.7-1
		c0.4-5.8-0.4-11.4-2.5-16.8c-0.2-0.6,0-1,0.4-1.3c1-0.6,2-1.1,3-1.7c0.6-0.3,0.6,0.1,0.7,0.4c1.5,3.7,2.5,7.6,3,11.5
		C102.1,60.7,102.2,62.4,102.2,64z"/>
	<path class="st0" d="M92.6,36.9c0,0.3-0.3,0.4-0.5,0.5c-1,0.7-2.1,1.3-3,2c-0.6,0.5-0.8-0.1-1-0.4c-2.7-3.2-5.9-5.9-9.4-8
		c-1.2-0.7-2.4-1.4-3.7-2c-0.6-0.3-0.8-0.6-0.6-1.2c0.3-0.9,0.6-1.9,1-2.9c0.2-0.7,0.6-0.8,1.3-0.5c6,2.8,11.3,6.9,15.6,12
		C92.4,36.6,92.5,36.7,92.6,36.9z"/>
	<path class="st0" d="M92.4,107.3c-0.6-0.4-1-1-1.6-1.5c-0.7-0.7-0.5-1.2,0.2-1.9c4.1-4,8.5-7.8,11.5-12.8c0.2-0.4,0.4-1.1,1.1-1
		c0.9,0.1,1.8,0.4,2.4,0.9c0.4,0.3-0.1,0.8-0.3,1.2c-2.1,3.4-4.5,6.6-7.2,9.5c-1.7,1.8-3.5,3.5-5.4,5
		C92.9,106.9,92.7,107.1,92.4,107.3z"/>
	<path class="st0" d="M9.5,106c-0.3,0-0.4-0.2-0.6-0.4c-2-2.3-3.8-4.7-5.4-7.3c-0.2-0.4-0.2-0.5,0.2-0.8c1.1-0.6,2.2-1.1,3.1-1.9
		c0.3-0.3,0.6-0.3,0.8,0.1c1.5,2.4,3.2,4.7,5,6.8c0.1,0.2,0.4,0.4,0.1,0.6c-1,0.9-2,1.8-3,2.6C9.7,105.9,9.6,106,9.5,106z"/>
	<path class="st0" d="M83.2,113c0.1,0.3-0.2,0.3-0.4,0.4c-1,0.5-2.1,1-3.2,1.5c-0.5,0.3-0.8,0.1-1-0.5c-0.8-2.6-1.9-5-3-7.4
		c-0.3-0.6-0.3-0.9,0.4-1.1c0.4-0.1,0.8-0.3,1.1-0.5c1.5-0.7,1.5-0.7,2.3,0.7c1.2,2.1,2.3,4.3,3.5,6.4C83,112.6,83.1,112.8,83.2,113
		z"/>
	<path class="st0" d="M22.1,117.3c-0.1-0.1-0.3-0.2-0.5-0.3c-1.5-1.1-3-2.2-4.5-3.3c-0.5-0.4-0.5-0.6,0-1.1c0.8-0.8,1.5-1.6,2.2-2.5
		c0.3-0.4,0.5-0.5,0.9-0.2c1.4,1.1,2.8,2.1,4.2,3.1c0.3,0.2,0.6,0.4,0.2,0.8c-0.8,1-1.5,2-2.2,3C22.5,117.1,22.4,117.3,22.1,117.3z"
		/>
	<path class="st0" d="M18.2,108.3c-0.1,0.2-0.3,0.4-0.4,0.5c-0.4,0.4-0.7,0.8-1.1,1.1c-1.7,1.9-1.8,1.9-3.6,0.1
		c-0.8-0.7-2-1.4-2-2.3c0-0.7,1.3-1.4,2.1-2c1.3-1.2,1.3-1.2,2.5,0.1c0.7,0.7,1.3,1.3,2,1.9C17.9,107.9,18,108.1,18.2,108.3z"/>
	<path class="st1" d="M25.7,70.8c0.8,0.5,0.8,1.4,0.9,2c0,0.9-1.1,0.8-1.7,0.8c-1.1,0-0.9-1.2-0.9-1.8
		C23.9,70.8,25.1,71.3,25.7,70.8z"/>
	<path class="st1" d="M24.4,67.1c0.7,0,1.3-0.1,1.3,0.8c-0.1,1.1-0.9,0.6-1.5,0.7c-0.6,0.1-1.1,0-1-0.8
		C23.3,66.5,24.2,67.3,24.4,67.1z"/>
</g>
</svg>
