<?xml version="1.0" encoding="utf-8"?>
<!-- Generator: Adobe Illustrator 26.0.1, SVG Export Plug-In . SVG Version: 6.00 Build 0)  -->
<svg version="1.1" id="Layer_1" xmlns="http://www.w3.org/2000/svg" xmlns:xlink="http://www.w3.org/1999/xlink" x="0px" y="0px"
	 viewBox="0 0 512 512" style="enable-background:new 0 0 512 512;" xml:space="preserve">
<style type="text/css">
	.st0{fill:url(#SVGID_1_);}
	.st1{fill:#BF9266;}
	
		.st2{clip-path:url(#SVGID_00000147217331721914483180000016038027398712332715_);fill-rule:evenodd;clip-rule:evenodd;fill:url(#XMLID_00000012455301400917049210000004259166553355606173_);}
	
		.st3{opacity:0.5;clip-path:url(#SVGID_00000147217331721914483180000016038027398712332715_);fill-rule:evenodd;clip-rule:evenodd;fill:#94F3FF;}
	.st4{fill:#F7931E;}
	.st5{fill:#FBE159;}
	.st6{fill:#FADA54;}
	
		.st7{clip-path:url(#XMLID_00000107589223516907431850000013529092076623673744_);fill:url(#SVGID_00000062901028920886376560000016115002454259910785_);}
	
		.st8{clip-path:url(#XMLID_00000093863858660218755360000015923314333529461433_);fill-rule:evenodd;clip-rule:evenodd;fill:url(#SVGID_00000054978806618318682430000010741696655646266496_);}
	
		.st9{clip-path:url(#XMLID_00000093863858660218755360000015923314333529461433_);fill-rule:evenodd;clip-rule:evenodd;fill:url(#SVGID_00000133517972408986768160000011826776040387327392_);}
	
		.st10{clip-path:url(#XMLID_00000093863858660218755360000015923314333529461433_);fill-rule:evenodd;clip-rule:evenodd;fill:url(#SVGID_00000088101089953057230070000008538781642136364459_);}
	
		.st11{clip-path:url(#XMLID_00000093863858660218755360000015923314333529461433_);fill-rule:evenodd;clip-rule:evenodd;fill:url(#SVGID_00000126322352033133901800000007711996556233621899_);filter:url(#Adobe_OpacityMaskFilter);}
	
		.st12{clip-path:url(#XMLID_00000093863858660218755360000015923314333529461433_);mask:url(#id0_00000180358358579876532910000014273104072263762861_);fill-rule:evenodd;clip-rule:evenodd;fill:#A7DE38;}
	
		.st13{clip-path:url(#XMLID_00000093863858660218755360000015923314333529461433_);fill-rule:evenodd;clip-rule:evenodd;fill:url(#SVGID_00000005247579082478003610000004139384253769950897_);filter:url(#Adobe_OpacityMaskFilter_00000078729263080756165800000002259263949219558327_);}
	
		.st14{clip-path:url(#XMLID_00000093863858660218755360000015923314333529461433_);mask:url(#id2_00000037654384756613583150000007936426512767338405_);fill-rule:evenodd;clip-rule:evenodd;fill:#A7DE38;}
	.st15{fill:#FFFFFF;}
</style>
<linearGradient id="SVGID_1_" gradientUnits="userSpaceOnUse" x1="0" y1="256" x2="512" y2="256">
	<stop  offset="0" style="stop-color:#1297E0"/>
	<stop  offset="1" style="stop-color:#39D5FF"/>
</linearGradient>
<rect class="st0" width="512" height="512"/>
<g id="LOGO">
	<path class="st1" d="M500.7,319c-28.6,109.2-127.9,189.7-246.1,189.7C132.8,508.7,30.9,423,6.1,308.5
		c-3.8-17.4,108.1,17.8,248.6,17.8S506.1,298.4,500.7,319z"/>
	<g>
		<defs>
			<path id="SVGID_00000182495419644927145090000012104405661426864811_" d="M509,254.4c0,140.5-113.9,29.4-254.4,29.4
				S-7,381.4,0.3,254.4C0.3,113.9,114.2,0,254.7,0S509,113.9,509,254.4z"/>
		</defs>
		<clipPath id="SVGID_00000148641056251786696040000011283259154072544417_">
			<use xlink:href="#SVGID_00000182495419644927145090000012104405661426864811_"  style="overflow:visible;"/>
		</clipPath>
		
			<linearGradient id="XMLID_00000043421857509163957060000006655596615994078362_" gradientUnits="userSpaceOnUse" x1="0.2904" y1="254.3649" x2="509.0205" y2="254.3649">
			<stop  offset="0" style="stop-color:#1B80F1"/>
			<stop  offset="1" style="stop-color:#27BAFA"/>
		</linearGradient>
		
			<circle id="XMLID_00000028307628764889153260000000921272567102541440_" style="clip-path:url(#SVGID_00000148641056251786696040000011283259154072544417_);fill-rule:evenodd;clip-rule:evenodd;fill:url(#XMLID_00000043421857509163957060000006655596615994078362_);" cx="254.7" cy="254.4" r="254.4"/>
		
			<path id="XMLID_00000052104671336724106410000012357991460127604878_" style="opacity:0.5;clip-path:url(#SVGID_00000148641056251786696040000011283259154072544417_);fill-rule:evenodd;clip-rule:evenodd;fill:#94F3FF;" d="
			M254.7,0C114.2,0,0.3,113.9,0.3,254.4c0,2.1,0,4.1,0.1,6.2C33.8,135.4,147.9,43.2,283.6,43.2c64.7,0,124.5,21,173,56.5
			C410.1,39.1,337,0,254.7,0z"/>
		
			<path id="XMLID_00000057140612087765178630000013724785412390347949_" style="opacity:0.5;clip-path:url(#SVGID_00000148641056251786696040000011283259154072544417_);fill-rule:evenodd;clip-rule:evenodd;fill:#94F3FF;" d="
			M254.7,0C181.9,0,116.3,30.5,70,79.5c41.9-23.1,90-36.2,141.3-36.2c12.3,0,24.3,0.8,36.2,2.2c135.9,16.7,243,126.5,255.7,263.6
			c3.9-17.6,5.9-35.9,5.9-54.7c0-58.2-19.5-111.8-52.4-154.6C410.1,39.1,337,0,254.7,0z"/>
	</g>
	<path class="st4" d="M420.6,199.9c-1.3,0-2.6,0-4,0c1.6-0.9,2.8-1.6,3.4-2c32.3-18.9,46.6-74.5,45.1-77s-56.9-17.4-89.2,1.4
		c-0.7,0.4-1.4,0.8-2.1,1.2c0.5-0.9,1-1.6,1.2-2.1c18.6-32.5,3.2-87.8,0.7-89.3c-2.5-1.5-58,13.3-76.6,45.8
		c-0.2,0.4-0.5,0.8-0.7,1.3c0-0.6,0-1.1,0-1.5c0-37.4-40.8-77.8-43.8-77.8c-2.9,0-43.8,40.4-43.8,77.8c0,0.8,0,1.7,0,2.6
		c-0.5-1-1-1.7-1.3-2.2c-18.7-32.4-74.2-47-76.8-45.5c-2.5,1.5-17.7,56.8,1,89.2c0.2,0.4,0.5,0.9,0.8,1.3c-0.5-0.3-1-0.6-1.3-0.8
		C101,103.5,45.5,118.5,44,121c-1.5,2.5,12.8,58.1,45.2,77c1.1,0.6,2.3,1.3,3.4,2c-1.8,0-3.2,0-4,0c-37.4,0-77.8,40.8-77.8,43.7
		c0,2.9,40.4,43.8,77.8,43.8c23.2,0,67.2-0.7,67.2-0.7l0-69.7l26.7-45.7l45.7-26.3h52.7l45.7,26.2l26.8,45.8l0.1,69.7
		c0,0,59.7,0.7,67.2,0.7c37.4,0,77.8-40.9,77.8-43.8C498.4,240.6,458,199.8,420.6,199.9z"/>
	<path class="st5" d="M254.7,23.8c-1.5,0-33.2,25.4-33.2,56.7c0,21.5,7.5,41.9,13.7,40.9c11.7-1.8,19.6-1.8,19.6-1.8s7.8,0,19.6,1.8
		c6.2,1,13.7-19.4,13.7-40.9C287.9,49.2,256.2,23.7,254.7,23.8z"/>
	<path class="st5" d="M364,52.9c-1.3-0.8-41.5,5.5-57,32.7c-10.7,18.7-14.4,40.1-8.5,42.3c11.1,4.3,17.9,8.1,17.9,8.1
		s6.8,3.9,16.1,11.3c4.9,3.9,21.5-10.1,32.2-28.7C380.2,91.4,365.4,53.6,364,52.9z"/>
	<path class="st5" d="M412.1,189.1c26.9-16,32.6-56.2,31.8-57.5c-0.8-1.3-38.8-15.6-65.7,0.3c-18.5,11-32.2,27.8-28.2,32.7
		c7.6,9.2,11.5,15.9,11.5,15.9s4,6.7,8.4,17.8C372.2,204,393.6,200,412.1,189.1z"/>
	<path class="st5" d="M417.9,210c-21.5,0.1-41.9,7.6-40.9,13.8c1.9,11.7,1.9,19.6,1.9,19.6s0,7.8-1.8,19.6c-1,6.2,19.5,13.6,41,13.6
		c31.3-0.1,56.6-31.9,56.6-33.4C474.7,241.6,449.2,209.9,417.9,210z"/>
	<path class="st5" d="M91.4,210.4c-31.3,0-56.8,31.6-56.8,33.2c0,1.5,25.4,33.3,56.7,33.3c21.5,0,41.9-7.4,41-13.6
		c-1.8-11.7-1.8-19.6-1.8-19.6s0-7.8,1.8-19.6C133.3,217.9,112.9,210.4,91.4,210.4z"/>
	<path class="st5" d="M130.5,132.6c-27-15.8-65-1.3-65.7,0C64,134,69.9,174.2,96.9,190c18.6,10.9,39.9,14.7,42.2,8.9
		c4.4-11,8.3-17.8,8.3-17.8s4-6.8,11.5-16C162.9,160.2,149.1,143.5,130.5,132.6z"/>
	<path class="st5" d="M144.6,53.2c-1.3,0.8-16.1,38.6-0.4,65.7c10.8,18.6,27.4,32.6,32.3,28.6c9.2-7.4,16-11.4,16-11.4
		s6.8-3.9,17.8-8.2c5.9-2.3,2.1-23.7-8.6-42.3C186.1,58.6,145.9,52.5,144.6,53.2z"/>
	<circle class="st6" cx="254.7" cy="243.8" r="107.6"/>
	<g>
		<defs>
			<circle id="XMLID_00000093149007151673748380000002044159080793430435_" cx="254.7" cy="254.4" r="254.4"/>
		</defs>
		<clipPath id="XMLID_00000133518446243349184750000016581204548251967410_">
			<use xlink:href="#XMLID_00000093149007151673748380000002044159080793430435_"  style="overflow:visible;"/>
		</clipPath>
		
			<linearGradient id="SVGID_00000044872182843267914840000005822037853334073524_" gradientUnits="userSpaceOnUse" x1="5.2393" y1="394.598" x2="506.6097" y2="394.598">
			<stop  offset="0" style="stop-color:#1297E0"/>
			<stop  offset="1" style="stop-color:#39D5FF"/>
		</linearGradient>
		
			<path style="clip-path:url(#XMLID_00000133518446243349184750000016581204548251967410_);fill:url(#SVGID_00000044872182843267914840000005822037853334073524_);" d="
			M7.4,300c-15.6,35.9,55.2,177.8,179.1,208.8c88.8,22.2,212.3-16.5,242.5-37.4c22.8-3.1,60.4-99.6,64.2-128.3
			c6.2-16.7,10.8-34.2,13.4-52.4C432.1,276,88.5,257.4,7.4,300z"/>
	</g>
	<g>
		<defs>
			<circle id="XMLID_00000167365541951529657720000017964839076681101711_" cx="254.7" cy="254.4" r="254.4"/>
		</defs>
		<clipPath id="XMLID_00000178187743631785684370000002609274286243929503_">
			<use xlink:href="#XMLID_00000167365541951529657720000017964839076681101711_"  style="overflow:visible;"/>
		</clipPath>
		
			<linearGradient id="SVGID_00000121251054213546686970000010170824306546394765_" gradientUnits="userSpaceOnUse" x1="8393.2246" y1="-8903.6484" x2="6897.4731" y2="-5143.1001" gradientTransform="matrix(8.068039e-02 1.241079e-02 1.094676e-02 -7.116297e-02 -270.8479 -190.013)">
			<stop  offset="0" style="stop-color:#1297E0"/>
			<stop  offset="1" style="stop-color:#39D5FF"/>
		</linearGradient>
		
			<path style="clip-path:url(#XMLID_00000178187743631785684370000002609274286243929503_);fill-rule:evenodd;clip-rule:evenodd;fill:url(#SVGID_00000121251054213546686970000010170824306546394765_);" d="
			M303.1,335.2c25.4,15.7,41.6,30.1,46,47.7c4.6,18.4,0.8,35.1-19.8,52.5c-32.5,27.4-100.5,53.5-210.2,75.8l88.5,63.7
			c6,4.3,12.8,7.1,19.9,8.2c7,1.1,14.3,0.5,21.4-1.8l130.5-43c31.3-17.2,52.8-36.2,65-55.8c11.9-19,14.8-38.7,9.4-57.8
			c-5.5-19.5-5.6-36-28.1-53.6c-41.5-32.3-117.4-101.3-340.4-90.2C259.7,301.2,303.1,335.2,303.1,335.2z"/>
		
			<linearGradient id="SVGID_00000088837026031961781070000017653476291002171042_" gradientUnits="userSpaceOnUse" x1="8996.9375" y1="-8308.5469" x2="8055.2153" y2="-5259.8735" gradientTransform="matrix(8.068039e-02 1.241079e-02 1.094676e-02 -7.116297e-02 -270.8479 -190.013)">
			<stop  offset="0" style="stop-color:#007C21"/>
			<stop  offset="1" style="stop-color:#99CC33"/>
		</linearGradient>
		
			<path style="clip-path:url(#XMLID_00000178187743631785684370000002609274286243929503_);fill-rule:evenodd;clip-rule:evenodd;fill:url(#SVGID_00000088837026031961781070000017653476291002171042_);" d="
			M87.8,280.7c212.7-16.2,309.2,50.5,338.4,73.3c26.1,20.4,42.8,43,49.5,66.5c6.8,23.8,3.2,48.2-11.4,71.6
			c-5.3,8.5-12,16.8-20.2,24.9l68.7-22.6c7.1-2.3,12.9-6.1,17.3-10.9l0,0c4.3-4.8,7.1-10.7,8.1-17.4l22.7-147.5
			C558.4,274.8,285.2,254.4,87.8,280.7z"/>
		
			<linearGradient id="SVGID_00000049941761582251721720000002047725766773233085_" gradientUnits="userSpaceOnUse" x1="5253.3394" y1="-8473.5898" x2="6302.5415" y2="-5951.4688" gradientTransform="matrix(8.068039e-02 1.241079e-02 1.094676e-02 -7.116297e-02 -270.8479 -190.013)">
			<stop  offset="0" style="stop-color:#007C21"/>
			<stop  offset="1" style="stop-color:#99CC33"/>
		</linearGradient>
		
			<path style="clip-path:url(#XMLID_00000178187743631785684370000002609274286243929503_);fill-rule:evenodd;clip-rule:evenodd;fill:url(#SVGID_00000049941761582251721720000002047725766773233085_);" d="
			M296.3,347c-54.9-33.9-164-64.1-310.7-83.6l-17.7,115c-1,6.8-0.1,13.3,2.5,19.1c2.7,5.8,7.1,11.1,13.2,15.5l0,0l114.6,82.4
			c115.4-22.1,185.2-47.9,216.6-74.4c14.8-12.4,20.3-24.6,17.4-36.3C329.1,372.4,316.8,359.6,296.3,347z"/>
		<defs>
			<filter id="Adobe_OpacityMaskFilter" filterUnits="userSpaceOnUse" x="-14.4" y="263.4" width="347.4" height="232.1">
				<feColorMatrix  type="matrix" values="1 0 0 0 0  0 1 0 0 0  0 0 1 0 0  0 0 0 1 0"/>
			</filter>
		</defs>
		
			<mask maskUnits="userSpaceOnUse" x="-14.4" y="263.4" width="347.4" height="232.1" id="id0_00000180358358579876532910000014273104072263762861_">
			
				<linearGradient id="SVGID_00000005961833204019594910000001059345065395725983_" gradientUnits="userSpaceOnUse" x1="8309.3428" y1="-5975.5137" x2="4366.98" y2="-8149.4907" gradientTransform="matrix(8.068039e-02 1.241079e-02 1.094676e-02 -7.116297e-02 -270.8479 -190.013)">
				<stop  offset="0" style="stop-color:#FFFFFF"/>
				<stop  offset="1" style="stop-color:#FFFFFF;stop-opacity:0"/>
			</linearGradient>
			
				<polygon style="clip-path:url(#XMLID_00000178187743631785684370000002609274286243929503_);fill-rule:evenodd;clip-rule:evenodd;fill:url(#SVGID_00000005961833204019594910000001059345065395725983_);filter:url(#Adobe_OpacityMaskFilter);" points="
				-14.4,263 344.4,318.2 312.1,528.4 -46.7,473.2 			"/>
		</mask>
		
			<path style="clip-path:url(#XMLID_00000178187743631785684370000002609274286243929503_);mask:url(#id0_00000180358358579876532910000014273104072263762861_);fill-rule:evenodd;clip-rule:evenodd;fill:#A7DE38;" d="
			M296.3,347c-54.9-33.9-164-64.1-310.7-83.6c123.3,24.4,213.8,55.8,258.1,87.4c16.5,11.8,26.1,23.3,27.9,33.9
			c1.7,10-3.8,20-17.2,29.7c-28.5,20.7-89.6,38.6-189.1,51c-2.7,0.2-5.4,0.3-8,0.5l41,29.5c115.4-22.1,185.2-47.9,216.6-74.4
			c14.8-12.4,20.3-24.6,17.4-36.3C329.1,372.4,316.8,359.6,296.3,347L296.3,347z"/>
		<defs>
			
				<filter id="Adobe_OpacityMaskFilter_00000012444737937417865000000015187778453333662114_" filterUnits="userSpaceOnUse" x="315" y="298.6" width="236" height="218.5">
				<feColorMatrix  type="matrix" values="1 0 0 0 0  0 1 0 0 0  0 0 1 0 0  0 0 0 1 0"/>
			</filter>
		</defs>
		
			<mask maskUnits="userSpaceOnUse" x="315" y="298.6" width="236" height="218.5" id="id2_00000037654384756613583150000007936426512767338405_">
			
				<linearGradient id="SVGID_00000032617567369136592190000013409395984334840201_" gradientUnits="userSpaceOnUse" x1="7946.0283" y1="-5534.9951" x2="12549.8906" y2="-9159.127" gradientTransform="matrix(8.068039e-02 1.241079e-02 1.094676e-02 -7.116297e-02 -270.8479 -190.013)">
				<stop  offset="0" style="stop-color:#FFFFFF"/>
				<stop  offset="1" style="stop-color:#FFFFFF;stop-opacity:0"/>
			</linearGradient>
			
				<polygon style="clip-path:url(#XMLID_00000178187743631785684370000002609274286243929503_);fill-rule:evenodd;clip-rule:evenodd;fill:url(#SVGID_00000032617567369136592190000013409395984334840201_);filter:url(#Adobe_OpacityMaskFilter_00000012444737937417865000000015187778453333662114_);" points="
				313.5,286 561.2,324.1 529.3,531.3 281.6,493.1 			"/>
		</mask>
		
			<path style="clip-path:url(#XMLID_00000178187743631785684370000002609274286243929503_);mask:url(#id2_00000037654384756613583150000007936426512767338405_);fill-rule:evenodd;clip-rule:evenodd;fill:#A7DE38;" d="
			M538.1,466.1l12.9-83.6c-41.1-62.2-134-89.4-236-83.1c49.8,15.9,82,31.8,111.2,54.6c26.1,20.4,42.8,43,49.5,66.5
			c6.8,23.8,3.2,48.2-11.4,71.6c-5.3,8.5-12,16.8-20.2,24.9l68.7-22.6c7.1-2.3,12.9-6.1,17.3-10.9l0,0
			C534.3,478.8,537.1,472.9,538.1,466.1L538.1,466.1z"/>
	</g>
</g>
<g>
	<path class="st15" d="M94.6,303.9c-4.5,0-8,3.5-8,7.9c0,4.4,3.5,7.9,8,7.9c2.2,0,4.5-1,6.2-2.7l2.2,2.5c-2.3,2.2-5.5,3.7-8.7,3.7
		c-6.6,0-11.6-5-11.6-11.4c0-6.4,5.1-11.3,11.8-11.3c3.2,0,6.3,1.3,8.5,3.5l-2.2,2.7C99.2,305,96.9,303.9,94.6,303.9z"/>
	<path class="st15" d="M129.9,311.9c0,6.4-5.2,11.3-11.9,11.3c-6.7,0-11.9-5-11.9-11.3c0-6.4,5.2-11.3,11.9-11.3
		C124.7,300.6,129.9,305.5,129.9,311.9z M110,311.9c0,4.4,3.7,8,8.1,8c4.4,0,8-3.5,8-8c0-4.4-3.6-7.9-8-7.9
		C113.7,304,110,307.4,110,311.9z"/>
	<path class="st15" d="M139.3,300.7v19h9.7v3.4h-13.5v-22.4H139.3z"/>
	<path class="st15" d="M170.2,300.7v3.4H158v6.1h10.9v3.4H158v6.2h12.6v3.4h-16.4v-22.4H170.2z M167.5,295.1l-3.9,3.1h-3.3l3.4-4.7
		L167.5,295.1z"/>
	<path class="st15" d="M192.1,312h3.3v8.2c-2.3,1.7-5.6,2.9-8.7,2.9c-6.6,0-11.8-5-11.8-11.3c0-6.4,5.2-11.3,12-11.3
		c3.2,0,6.4,1.2,8.6,3.1l-2.1,2.8c-1.7-1.6-4.1-2.6-6.5-2.6c-4.6,0-8.2,3.5-8.2,7.9c0,4.5,3.6,8,8.2,8c1.7,0,3.5-0.6,5.1-1.5V312z"
		/>
	<path class="st15" d="M206.1,300.7V323h-3.8v-22.4H206.1z"/>
	<path class="st15" d="M235.4,311.9c0,6.4-5.2,11.3-11.9,11.3c-6.7,0-11.9-5-11.9-11.3c0-6.4,5.2-11.3,11.9-11.3
		C230.2,300.6,235.4,305.5,235.4,311.9z M215.5,311.9c0,4.4,3.7,8,8.1,8c4.4,0,8-3.5,8-8c0-4.4-3.6-7.9-8-7.9
		C219.2,304,215.5,307.4,215.5,311.9z"/>
	<path class="st15" d="M268.2,300.7v3.4H256v6.1h10.9v3.4H256v6.2h12.6v3.4h-16.4v-22.4H268.2z"/>
	<path class="st15" d="M281.9,304.1c-2.2,0-3.6,0.8-3.6,2.3c0,4.9,12.1,2.3,12.1,10.3c0,4-3.5,6.5-8.4,6.5c-3.5,0-6.8-1.4-9.1-3.5
		l1.6-3.3c2.3,2.1,5.2,3.3,7.6,3.3c2.6,0,4.2-1,4.2-2.7c0-5-12.1-2.2-12.1-10.2c0-3.8,3.3-6.2,8.2-6.2c2.9,0,5.8,0.9,7.8,2.3
		l-1.6,3.3C286,304.7,283.5,304.1,281.9,304.1z"/>
	<path class="st15" d="M311.5,300.7v3.4h-7.1v19h-3.8v-19h-7.1v-3.4H311.5z"/>
	<path class="st15" d="M328.6,318h-11.3l-2.1,5.1h-3.9l9.9-22.4h3.9l9.8,22.4h-4L328.6,318z M327.2,314.6l-4.2-9.9l-4.2,9.9H327.2z"
		/>
	<path class="st15" d="M360.1,311.9c0,6.5-4.9,11.2-11.7,11.2h-9.1v-22.4h9.2C355.2,300.7,360.1,305.4,360.1,311.9z M356.3,311.9
		c0-4.6-3.4-7.8-7.8-7.8h-5.3v15.6h5.5C353,319.7,356.3,316.4,356.3,311.9z"/>
	<path class="st15" d="M375.1,319.8c3.6,0,5.9-2.2,5.9-6v-13.1h3.8v13.1c0,5.9-3.7,9.4-9.7,9.4s-9.8-3.6-9.8-9.4v-13.1h3.8v13.1
		C369,317.5,371.4,319.8,375.1,319.8z"/>
	<path class="st15" d="M405.6,318h-11.3l-2.1,5.1h-3.9l9.9-22.4h3.9l9.8,22.4h-4L405.6,318z M404.1,314.6l-4.2-9.9l-4.2,9.9H404.1z"
		/>
	<path class="st15" d="M420.1,300.7v19h9.7v3.4h-13.5v-22.4H420.1z"/>
</g>
<g>
	<path class="st15" d="M57.9,352.1c-0.6,0.2-1.2,0.3-1.7,0.3c-1.4,0-2.4-0.8-2.9-2.5c-0.1-0.4-0.2-0.8-0.3-1.1
		c0-0.3-0.1-0.6-0.1-0.8c0-1.4,0.8-2.4,2.3-3.1c3.1-1.2,6.2-2.2,9.4-3c3.2-0.8,6.4-1.1,9.6-1.1c1.5,0,3,0.2,4.5,0.5
		c1.5,0.3,2.8,0.9,4,1.7c1.2,0.8,2.1,1.8,2.8,3.1c0.7,1.3,1.1,3,1.1,4.9c0,1.4-0.3,2.7-0.9,4c-0.6,1.3-1.3,2.5-2.3,3.7
		c-0.9,1.2-2,2.3-3.2,3.3c-1.2,1-2.4,2-3.7,2.9c-1.3,0.9-2.5,1.7-3.7,2.4c-1.2,0.7-2.3,1.3-3.3,1.9c-0.8,0.5-1.3,1-1.3,1.5
		c0,0.6,0.5,1.1,1.4,1.4c3.1,1.1,6.3,2.1,9.6,3.1c3.3,1,6.6,2,9.9,3.2c1.6,0.6,2.4,1.5,2.4,2.7c0,0.6-0.2,1.2-0.5,1.8
		c-0.3,0.6-0.7,1.1-1.1,1.6c-0.8,1.3-1.9,1.9-3.1,1.9c-0.4,0-1-0.1-1.6-0.3c-1.9-0.7-3.9-1.5-6.1-2.3c-2.2-0.8-4.4-1.6-6.6-2.3
		c-2.3-0.8-4.5-1.5-6.7-2.2c-2.2-0.7-4.2-1.4-6.1-1.9c-0.7-0.2-1.1-0.3-1.4-0.3c-0.2,0-0.4,0.1-0.5,0.2c-0.1,0.1-0.2,0.3-0.2,0.6
		c0,0.1,0,0.2,0,0.3c0,0.1,0,0.3,0,0.4c0.1,0.4,0.2,1,0.3,1.7c0.1,0.7,0.3,1.4,0.4,2.2c0.1,0.8,0.2,1.5,0.3,2.2
		c0.1,0.7,0.1,1.2,0.1,1.7c0,1.6-0.9,2.8-2.7,3.4l-2,0.6c-0.3,0.1-0.6,0.2-0.8,0.2c-0.2,0-0.5,0.1-0.7,0.1c-1.6,0-2.5-1-2.8-3
		c-0.7-5.3-1.6-10.5-2.7-15.7c-1.1-5.2-2.3-10.3-3.7-15.4c-0.1-0.3-0.1-0.5-0.2-0.8c0-0.2,0-0.4,0-0.6c0-1.5,0.8-2.6,2.5-3.1
		c0.6-0.2,1.1-0.4,1.5-0.5c0.4-0.1,0.7-0.2,1-0.3c0.2-0.1,0.4-0.1,0.6-0.2c0.1,0,0.3,0,0.4,0c1.6,0,2.6,0.9,3.1,2.7
		c0.6,2.3,1.2,4.5,1.7,6.6c0.5,2.1,1,4.2,1.5,6.3c0.2,1,0.7,1.5,1.3,1.5c0.2,0,0.4,0,0.6-0.1c0.2-0.1,0.5-0.2,0.8-0.3
		c0.9-0.5,2.1-1.1,3.4-1.8c1.3-0.7,2.7-1.5,4.2-2.4c1.4-0.9,2.9-1.8,4.3-2.8c1.4-1,2.7-2,3.8-3c1.1-1,2-2,2.7-2.9c0.7-1,1-1.9,1-2.7
		c0-0.5-0.1-1-0.2-1.4c-0.2-0.4-0.5-0.8-0.9-1.1c-0.4-0.3-1-0.6-1.8-0.7c-0.7-0.2-1.7-0.3-2.8-0.3c-1.1,0-2.3,0.1-3.5,0.3
		c-1.2,0.2-2.4,0.4-3.6,0.8c-1.2,0.3-2.4,0.7-3.5,1.1C60.1,351.2,59,351.6,57.9,352.1z"/>
	<path class="st15" d="M99,340.6c-0.8,0-1.6-0.1-2.4-0.4c-0.7-0.2-1.4-0.6-1.9-1c-0.5-0.5-1-1-1.3-1.6c-0.3-0.6-0.5-1.3-0.5-2
		c0-1.2,0.5-2.2,1.5-3c1-0.8,2.3-1.1,3.9-1.1c0.8,0,1.5,0.1,2.2,0.4c0.7,0.3,1.3,0.6,1.9,1.1c0.5,0.5,1,1,1.3,1.6
		c0.3,0.6,0.5,1.3,0.5,1.9c0,1.3-0.5,2.2-1.4,2.9C101.8,340.3,100.5,340.6,99,340.6z M93,353.9c0-1,0.4-1.9,1.3-2.5
		c0.9-0.7,2.1-1,3.5-1c2.6,0,4,0.9,4.2,2.7c0.1,1.3,0.2,2.7,0.4,4.2c0.1,1.6,0.3,3.2,0.4,5c0.1,1.8,0.2,3.6,0.3,5.5
		c0.1,1.9,0.2,3.7,0.3,5.6c0.1,1.8,0.2,3.6,0.2,5.3c0.1,1.7,0.1,3.2,0.1,4.6c0,1.5-0.5,2.5-1.6,3.3c-1,0.7-2.5,1.1-4.5,1.1
		c-0.9,0-1.6-0.2-2.1-0.6c-0.5-0.4-0.8-1-0.8-1.9c0-4-0.1-7.8-0.3-11.3c-0.2-3.5-0.4-6.6-0.6-9.4c-0.2-2.7-0.4-5-0.6-6.8
		C93.1,355.9,93,354.6,93,353.9z"/>
	<path class="st15" d="M112.4,370.7c0-0.5,0.1-1,0.2-1.7c0.1-0.6,0.2-1.3,0.2-2c0-0.5-0.2-0.9-0.6-1.1c-0.4-0.3-0.9-0.6-1.4-0.9
		c-0.5-0.3-1-0.7-1.4-1.2c-0.4-0.5-0.6-1.2-0.6-2.1c0-0.7,0.2-1.3,0.5-2c0.4-0.7,0.9-1.3,1.6-1.8c1.7-1.3,3.5-2.4,5.4-3.5
		c1.8-1,3.7-1.9,5.5-2.6c1.8-0.7,3.7-1.2,5.5-1.6c1.8-0.4,3.5-0.6,5.2-0.6c2.8,0,5.4,0.5,7.9,1.6c2.5,1,4.6,2.4,6.4,4.2
		c1.8,1.8,3.3,3.9,4.3,6.3c1.1,2.4,1.6,5,1.6,7.7c0,2.7-0.6,5.2-1.7,7.6c-1.1,2.4-2.6,4.5-4.5,6.3c-1.9,1.8-4.1,3.2-6.7,4.3
		c-2.5,1.1-5.2,1.6-8.1,1.6c-2.8,0-5.3-0.5-7.7-1.4c-2.4-0.9-4.4-2.2-6.1-3.9c-1.7-1.6-3.1-3.6-4-5.9
		C112.8,375.8,112.4,373.4,112.4,370.7z M132.6,381.3c1.2,0,2.5-0.2,3.8-0.7c1.3-0.5,2.5-1.2,3.6-2.2c1.1-0.9,2-2.1,2.7-3.5
		c0.7-1.4,1.1-2.9,1.1-4.6c0-1.7-0.3-3.4-1-4.9c-0.6-1.5-1.5-2.8-2.6-4c-1.1-1.1-2.4-2-4-2.6c-1.5-0.6-3.2-1-5-1
		c-3.2,0-5.7,0.8-7.4,2.5c-1.7,1.7-2.6,4.2-2.6,7.7c0,1.9,0.3,3.6,0.9,5.3c0.6,1.6,1.4,3,2.4,4.2c1,1.2,2.2,2.1,3.6,2.8
		C129.5,381,131,381.3,132.6,381.3z"/>
	<path class="st15" d="M208.7,353.2c0.1,0.1,0.3,0.1,0.5,0.1c0.6,0,1-0.4,1-1.3v-13.6c0-1.7,0.4-2.9,1.2-3.7
		c0.8-0.7,2.1-1.1,3.9-1.1c1.8,0,3.1,0.4,3.9,1.1c0.8,0.8,1.1,2.1,1.1,3.9c0,0.7,0,1.7-0.1,3.1c-0.1,1.4-0.2,2.9-0.3,4.6
		c-0.1,1.7-0.2,3.6-0.3,5.5c-0.1,2-0.1,3.9-0.1,5.8c0,3,0.2,5.5,0.6,7.7c0.4,2.2,1,3.9,1.7,5.4c0.8,1.4,1.7,2.5,2.7,3.1
		c1,0.7,2.2,1,3.5,1c0.7,0,1.4-0.1,2-0.3c0.6-0.2,1.3-0.3,2.1-0.3c0.6,0,1.1,0.3,1.5,0.9c0.4,0.6,0.6,1.3,0.6,2.2
		c0,0.8-0.2,1.5-0.7,2.1c-0.5,0.7-1.1,1.3-1.8,1.7c-0.8,0.5-1.7,0.9-2.7,1.2c-1,0.3-2.1,0.4-3.2,0.4c-2.4,0-4.6-0.7-6.6-2.2
		c-2-1.5-3.5-3.7-4.5-6.8c-0.1-0.5-0.2-0.7-0.4-0.7c-0.2,0-0.4,0.2-0.6,0.7c-0.8,2.1-1.8,4-3.1,5.7c-1.3,1.7-2.7,3.2-4.4,4.4
		c-1.7,1.2-3.5,2.1-5.5,2.8c-2,0.6-4.1,1-6.3,1c-2.3,0-4.5-0.4-6.4-1.2c-1.9-0.8-3.6-1.8-5-3.2c-1.4-1.4-2.5-3-3.3-4.9
		c-0.8-1.9-1.2-3.9-1.2-6.1c0-2.8,0.6-5.4,1.7-7.9c1.2-2.5,2.7-4.6,4.7-6.5c2-1.8,4.3-3.3,7-4.4c2.7-1.1,5.5-1.6,8.5-1.6
		c1.2,0,2.5,0.1,3.9,0.3C205.8,352.5,207.2,352.8,208.7,353.2z M196.1,380c1.7,0,3.1-0.4,4.4-1.1c1.3-0.7,2.4-1.7,3.5-2.8
		c1-1.1,1.9-2.4,2.6-3.7c0.7-1.4,1.3-2.7,1.7-4c0.4-1.3,0.8-2.4,1-3.5c0.2-1,0.3-1.7,0.3-2.2c0-0.3-0.1-0.6-0.3-0.9
		c-0.2-0.2-0.4-0.4-0.8-0.6c-0.8-0.2-1.6-0.4-2.4-0.5c-0.8-0.2-1.7-0.3-2.5-0.4c-0.8-0.1-1.6-0.2-2.3-0.3c-0.7-0.1-1.4-0.1-2-0.1
		c-1.7,0-3.3,0.3-4.8,0.8c-1.4,0.5-2.6,1.3-3.6,2.2c-1,1-1.8,2.1-2.3,3.4c-0.6,1.3-0.8,2.8-0.8,4.3c0,1.4,0.2,2.7,0.6,3.8
		c0.4,1.1,1,2.1,1.7,2.9c0.7,0.8,1.6,1.4,2.7,1.8C193.7,379.8,194.9,380,196.1,380z"/>
	<path class="st15" d="M232.5,370.7c0-0.5,0.1-1,0.2-1.7c0.1-0.6,0.2-1.3,0.2-2c0-0.5-0.2-0.9-0.6-1.1c-0.4-0.3-0.9-0.6-1.4-0.9
		c-0.5-0.3-1-0.7-1.4-1.2c-0.4-0.5-0.6-1.2-0.6-2.1c0-0.7,0.2-1.3,0.5-2c0.4-0.7,0.9-1.3,1.6-1.8c1.7-1.3,3.5-2.4,5.4-3.5
		c1.8-1,3.7-1.9,5.5-2.6c1.8-0.7,3.7-1.2,5.5-1.6c1.8-0.4,3.5-0.6,5.2-0.6c2.8,0,5.4,0.5,7.9,1.6c2.5,1,4.6,2.4,6.4,4.2
		c1.8,1.8,3.3,3.9,4.3,6.3c1.1,2.4,1.6,5,1.6,7.7c0,2.7-0.6,5.2-1.7,7.6c-1.1,2.4-2.6,4.5-4.5,6.3c-1.9,1.8-4.1,3.2-6.7,4.3
		c-2.6,1.1-5.2,1.6-8.1,1.6c-2.8,0-5.3-0.5-7.7-1.4c-2.4-0.9-4.4-2.2-6.1-3.9c-1.7-1.6-3.1-3.6-4-5.9
		C232.9,375.8,232.5,373.4,232.5,370.7z M252.7,381.3c1.2,0,2.5-0.2,3.8-0.7c1.3-0.5,2.5-1.2,3.6-2.2c1.1-0.9,2-2.1,2.7-3.5
		c0.7-1.4,1.1-2.9,1.1-4.6c0-1.7-0.3-3.4-1-4.9c-0.6-1.5-1.5-2.8-2.6-4c-1.1-1.1-2.4-2-4-2.6c-1.5-0.6-3.2-1-5-1
		c-3.2,0-5.7,0.8-7.4,2.5c-1.7,1.7-2.6,4.2-2.6,7.7c0,1.9,0.3,3.6,0.9,5.3c0.6,1.6,1.4,3,2.4,4.2c1,1.2,2.2,2.1,3.6,2.8
		C249.6,381,251.1,381.3,252.7,381.3z"/>
	<path class="st15" d="M341.9,361.4c-0.3,0-0.7,0.3-0.9,0.8c-1.1,2.2-2.3,4.1-3.5,5.9c-1.2,1.7-2.5,3.2-3.7,4.5
		c-1.3,1.2-2.5,2.2-3.7,2.8c-1.2,0.7-2.4,1-3.5,1c-1,0-2-0.2-2.9-0.7c-0.9-0.5-1.9-1.3-2.9-2.6c-1-1.3-2.2-3-3.5-5.2
		c-1.3-2.2-2.9-5.1-4.9-8.7c-0.3-0.6-0.6-1-1-1.3c-0.3-0.3-0.6-0.4-0.9-0.4c-0.4,0-0.7,0.4-1,1.2c-0.3,0.8-0.6,1.9-0.8,3.4
		c-0.2,1.4-0.4,3.2-0.5,5.2c-0.1,2-0.2,4.3-0.2,6.7c0,1.5,0.1,2.9,0.2,4.4c0.2,1.5,0.2,3,0.2,4.5c0,0.5-0.1,1-0.4,1.5
		c-0.3,0.5-0.7,0.8-1.2,1.2c-0.5,0.3-1,0.6-1.7,0.8c-0.7,0.2-1.3,0.3-2.1,0.3c-1.5,0-2.5-0.9-3.1-2.6c-0.6-1.7-1-4.5-1-8.4
		c0-4.9,0.3-9.3,0.8-13.3c0.5-4,1.3-7.4,2.3-10.2c1-2.8,2.2-5,3.6-6.6c1.4-1.6,2.9-2.3,4.7-2.3c1.5,0,3,0.9,4.3,2.6
		c1.4,1.7,2.9,4.5,4.5,8.4c0.6,1.6,1.3,3,2.1,4.4c0.7,1.4,1.5,2.6,2.2,3.6c0.7,1,1.5,1.8,2.2,2.4c0.7,0.6,1.3,0.9,1.9,0.9
		c0.6,0,1.1-0.1,1.6-0.4c0.5-0.2,1.1-0.8,1.7-1.6c0.7-0.8,1.4-2,2.3-3.6c0.9-1.6,2-3.7,3.3-6.4c0.7-1.4,1.3-2.6,1.9-3.5
		c0.6-0.9,1.1-1.7,1.7-2.3c0.6-0.6,1.1-1,1.7-1.2c0.6-0.2,1.3-0.4,2.1-0.4c0.9,0,1.8,0.5,2.7,1.4c0.9,1,1.7,2.2,2.6,3.8
		c0.8,1.6,1.6,3.5,2.4,5.6c0.8,2.1,1.6,4.4,2.3,6.7c0.7,2.3,1.5,4.7,2.2,7.1c0.7,2.4,1.4,4.7,2.1,6.8c0.2,0.6,0.3,1.1,0.4,1.3
		c0.1,0.2,0.1,0.5,0.1,0.9c0,0.5-0.2,1-0.5,1.5c-0.3,0.5-0.7,0.9-1.2,1.3c-0.5,0.4-1.1,0.7-1.7,0.9c-0.6,0.2-1.2,0.3-1.9,0.3
		c-0.8,0-1.4-0.1-1.9-0.3c-0.5-0.2-0.8-0.5-1.1-1c-0.1-0.3-0.4-1-0.7-2.1c-0.3-1.1-0.8-2.5-1.2-4c-0.5-1.6-1-3.2-1.6-5
		c-0.6-1.7-1.1-3.4-1.7-4.8c-0.6-1.5-1.1-2.7-1.6-3.7C342.8,361.9,342.3,361.4,341.9,361.4z"/>
	<path class="st15" d="M398.8,375.6c0.8-0.7,1.7-1.1,2.5-1.1c0.5,0,0.9,0.1,1.3,0.3c0.4,0.2,0.8,0.6,1.3,1.1
		c0.4,0.7,0.7,1.2,0.9,1.6c0.2,0.4,0.3,0.8,0.3,1.2c0,0.9-0.4,1.7-1.3,2.5c-1.4,1.2-2.9,2.2-4.5,3.1c-1.6,0.9-3.3,1.7-5.1,2.3
		c-1.8,0.6-3.6,1.1-5.5,1.5c-1.9,0.3-3.8,0.5-5.6,0.5c-2.4,0-4.6-0.3-6.6-0.9c-2.1-0.6-3.9-1.4-5.5-2.6c-1.6-1.1-3-2.4-4.1-4
		c-1.1-1.6-1.9-3.3-2.4-5.3c-0.3-0.8-0.5-1.3-0.7-1.6c-0.2-0.2-0.6-0.4-1.1-0.4c-1.1,0-1.9-0.3-2.5-0.8c-0.6-0.5-0.9-1.3-0.9-2.3
		c0-0.4,0-0.7,0.1-0.8l0.1-0.9c0.1-1,0.4-1.8,0.9-2.3c0.4-0.5,1.1-0.7,2-0.7h0.7c1.2,0,2.1-0.6,2.6-1.7c0.9-2,2.1-3.8,3.5-5.5
		c1.4-1.7,3-3.1,4.7-4.3c1.7-1.2,3.6-2.1,5.6-2.8c2-0.7,4-1,6.1-1c2.2,0,4.2,0.3,6.1,0.9c1.9,0.6,3.5,1.5,4.9,2.6
		c1.4,1.1,2.5,2.4,3.3,3.9c0.8,1.5,1.2,3.1,1.2,4.8c0,1.2-0.2,2.3-0.7,3.3c-0.5,1-1.1,1.9-2,2.6c-0.9,0.7-1.9,1.3-3.2,1.8
		c-1.2,0.5-2.6,0.8-4.2,0.9l-15.2,1.5c-0.6,0-1.1,0.1-1.4,0.4c-0.4,0.3-0.5,0.7-0.5,1.2c0,0.8,0.3,1.5,0.9,2.2s1.3,1.3,2.3,1.9
		c0.9,0.5,2,1,3.3,1.3c1.2,0.3,2.5,0.5,3.8,0.5c1.3,0,2.5-0.1,3.9-0.4c1.3-0.2,2.6-0.6,3.9-1.1c1.3-0.5,2.6-1,3.8-1.7
		C396.6,377.2,397.7,376.5,398.8,375.6z M389.1,364.3c0.4-0.1,0.8-0.3,1.1-0.6c0.3-0.3,0.5-0.7,0.5-1.2c0-0.4-0.2-0.8-0.5-1.2
		c-0.3-0.4-0.8-0.7-1.3-1c-0.6-0.3-1.2-0.5-1.9-0.7c-0.7-0.2-1.5-0.3-2.3-0.3c-1.2,0-2.4,0.2-3.7,0.5c-1.3,0.3-2.4,0.8-3.4,1.4
		c-1,0.6-1.9,1.2-2.5,1.9c-0.6,0.7-1,1.4-1,2c0,0.7,0.4,1,1.2,1c0.5,0,1.3-0.1,2.4-0.2c1.1-0.1,2.3-0.3,3.7-0.4
		c1.3-0.2,2.7-0.3,4.1-0.5C386.9,364.7,388.1,364.5,389.1,364.3z"/>
	<path class="st15" d="M414.4,340.6c-0.8,0-1.6-0.1-2.4-0.4c-0.7-0.2-1.4-0.6-1.9-1c-0.5-0.5-1-1-1.3-1.6c-0.3-0.6-0.5-1.3-0.5-2
		c0-1.2,0.5-2.2,1.5-3c1-0.8,2.3-1.1,3.9-1.1c0.8,0,1.5,0.1,2.2,0.4c0.7,0.3,1.3,0.6,1.9,1.1c0.5,0.5,1,1,1.3,1.6
		c0.3,0.6,0.5,1.3,0.5,1.9c0,1.3-0.5,2.2-1.4,2.9C417.2,340.3,416,340.6,414.4,340.6z M408.4,353.9c0-1,0.4-1.9,1.3-2.5
		c0.9-0.7,2.1-1,3.5-1c2.6,0,4,0.9,4.2,2.7c0.1,1.3,0.2,2.7,0.4,4.2c0.1,1.6,0.3,3.2,0.4,5c0.1,1.8,0.2,3.6,0.3,5.5
		c0.1,1.9,0.2,3.7,0.3,5.6c0.1,1.8,0.2,3.6,0.2,5.3c0.1,1.7,0.1,3.2,0.1,4.6c0,1.5-0.5,2.5-1.6,3.3c-1,0.7-2.5,1.1-4.5,1.1
		c-0.9,0-1.6-0.2-2.1-0.6c-0.5-0.4-0.8-1-0.8-1.9c0-4-0.1-7.8-0.3-11.3c-0.2-3.5-0.4-6.6-0.6-9.4c-0.2-2.7-0.4-5-0.6-6.8
		C408.5,355.9,408.4,354.6,408.4,353.9z"/>
	<path class="st15" d="M427.8,370.7c0-0.5,0.1-1,0.2-1.7c0.1-0.6,0.2-1.3,0.2-2c0-0.5-0.2-0.9-0.6-1.1c-0.4-0.3-0.9-0.6-1.4-0.9
		c-0.5-0.3-1-0.7-1.4-1.2c-0.4-0.5-0.6-1.2-0.6-2.1c0-0.7,0.2-1.3,0.5-2c0.4-0.7,0.9-1.3,1.6-1.8c1.7-1.3,3.5-2.4,5.4-3.5
		c1.8-1,3.7-1.9,5.5-2.6c1.8-0.7,3.7-1.2,5.5-1.6c1.8-0.4,3.5-0.6,5.2-0.6c2.8,0,5.4,0.5,7.9,1.6c2.5,1,4.6,2.4,6.4,4.2
		c1.8,1.8,3.3,3.9,4.3,6.3c1.1,2.4,1.6,5,1.6,7.7c0,2.7-0.6,5.2-1.7,7.6c-1.1,2.4-2.6,4.5-4.5,6.3c-1.9,1.8-4.1,3.2-6.7,4.3
		c-2.6,1.1-5.2,1.6-8.1,1.6c-2.8,0-5.3-0.5-7.7-1.4c-2.4-0.9-4.4-2.2-6.1-3.9c-1.7-1.6-3.1-3.6-4-5.9
		C428.3,375.8,427.8,373.4,427.8,370.7z M448,381.3c1.2,0,2.5-0.2,3.8-0.7c1.3-0.5,2.5-1.2,3.6-2.2c1.1-0.9,2-2.1,2.7-3.5
		c0.7-1.4,1.1-2.9,1.1-4.6c0-1.7-0.3-3.4-1-4.9c-0.6-1.5-1.5-2.8-2.6-4c-1.1-1.1-2.4-2-4-2.6c-1.5-0.6-3.2-1-5-1
		c-3.2,0-5.7,0.8-7.4,2.5c-1.7,1.7-2.6,4.2-2.6,7.7c0,1.9,0.3,3.6,0.9,5.3c0.6,1.6,1.4,3,2.4,4.2c1,1.2,2.2,2.1,3.6,2.8
		C444.9,381,446.4,381.3,448,381.3z"/>
</g>
</svg>
