<?xml version="1.0" encoding="utf-8"?>
<!-- Generator: Adobe Illustrator 26.0.1, SVG Export Plug-In . SVG Version: 6.00 Build 0)  -->
<svg version="1.1" id="Layer_1" xmlns="http://www.w3.org/2000/svg" xmlns:xlink="http://www.w3.org/1999/xlink" x="0px" y="0px"
	 viewBox="0 0 444.4 128" style="enable-background:new 0 0 444.4 128;" xml:space="preserve">
<style type="text/css">
	.st0{fill:#BF9266;}
	
		.st1{clip-path:url(#SVGID_00000011029983678871368880000014497453735871730873_);fill-rule:evenodd;clip-rule:evenodd;fill:url(#XMLID_00000060006176922287042520000010476426721308661890_);}
	
		.st2{opacity:0.5;clip-path:url(#SVGID_00000011029983678871368880000014497453735871730873_);fill-rule:evenodd;clip-rule:evenodd;fill:#94F3FF;}
	.st3{fill:#F7931E;}
	.st4{fill:#FBE159;}
	.st5{fill:#FADA54;}
	
		.st6{clip-path:url(#XMLID_00000157273974146481220730000011683414290687776162_);fill:url(#SVGID_00000182512284455288552200000000701089856275980724_);}
	
		.st7{clip-path:url(#XMLID_00000149380437958978365190000005771856243522686359_);fill-rule:evenodd;clip-rule:evenodd;fill:url(#SVGID_00000000939671715722701970000010328345220140576397_);}
	
		.st8{clip-path:url(#XMLID_00000149380437958978365190000005771856243522686359_);fill-rule:evenodd;clip-rule:evenodd;fill:url(#SVGID_00000115506176107621534980000005430755759526209979_);}
	
		.st9{clip-path:url(#XMLID_00000149380437958978365190000005771856243522686359_);fill-rule:evenodd;clip-rule:evenodd;fill:url(#SVGID_00000036956947945897037890000007587622750454399372_);}
	
		.st10{clip-path:url(#XMLID_00000149380437958978365190000005771856243522686359_);fill-rule:evenodd;clip-rule:evenodd;fill:url(#SVGID_00000097500140051622937070000003714844073757051012_);filter:url(#Adobe_OpacityMaskFilter);}
	
		.st11{clip-path:url(#XMLID_00000149380437958978365190000005771856243522686359_);mask:url(#id0_00000138558488385410660730000013100004112218767789_);fill-rule:evenodd;clip-rule:evenodd;fill:#A7DE38;}
	
		.st12{clip-path:url(#XMLID_00000149380437958978365190000005771856243522686359_);fill-rule:evenodd;clip-rule:evenodd;fill:url(#SVGID_00000001624337008891701110000000081075581230966437_);filter:url(#Adobe_OpacityMaskFilter_00000174564814086771077390000007952742107497742753_);}
	
		.st13{clip-path:url(#XMLID_00000149380437958978365190000005771856243522686359_);mask:url(#id2_00000037681980356158805080000002424761206609613745_);fill-rule:evenodd;clip-rule:evenodd;fill:#A7DE38;}
</style>
<g>
	<g id="LOGO_00000054234435733995374270000001920408561387165088_">
		<path class="st0" d="M102.5,77.2c-5.9,22.3-26.2,38.8-50.4,38.8c-24.9,0-45.8-17.6-50.9-41c-0.8-3.6,22.1,3.6,50.9,3.6
			S103.6,73,102.5,77.2z"/>
		<g>
			<defs>
				<path id="SVGID_1_" d="M104.2,64c0,28.8-23.3,6-52.1,6S-1.4,90,0.1,64c0-28.8,23.3-52.1,52.1-52.1S104.2,35.2,104.2,64z"/>
			</defs>
			<clipPath id="SVGID_00000055676280792371140030000017127416870973567152_">
				<use xlink:href="#SVGID_1_"  style="overflow:visible;"/>
			</clipPath>
			
				<linearGradient id="XMLID_00000158021149818262550400000012130150265676450229_" gradientUnits="userSpaceOnUse" x1="6.471447e-02" y1="64" x2="104.1848" y2="64">
				<stop  offset="0" style="stop-color:#1B80F1"/>
				<stop  offset="1" style="stop-color:#27BAFA"/>
			</linearGradient>
			
				<circle id="XMLID_00000017502672622222726520000004087033375165542315_" style="clip-path:url(#SVGID_00000055676280792371140030000017127416870973567152_);fill-rule:evenodd;clip-rule:evenodd;fill:url(#XMLID_00000158021149818262550400000012130150265676450229_);" cx="52.1" cy="64" r="52.1"/>
			
				<path id="XMLID_00000106125556939678180450000007495177651714847147_" style="opacity:0.5;clip-path:url(#SVGID_00000055676280792371140030000017127416870973567152_);fill-rule:evenodd;clip-rule:evenodd;fill:#94F3FF;" d="
				M52.1,11.9C23.4,11.9,0.1,35.2,0.1,64c0,0.4,0,0.8,0,1.3c6.8-25.6,30.2-44.5,58-44.5c13.2,0,25.5,4.3,35.4,11.6
				C83.9,19.9,69,11.9,52.1,11.9z"/>
			
				<path id="XMLID_00000057111351225421189260000005864468079380765082_" style="opacity:0.5;clip-path:url(#SVGID_00000055676280792371140030000017127416870973567152_);fill-rule:evenodd;clip-rule:evenodd;fill:#94F3FF;" d="
				M52.1,11.9c-14.9,0-28.3,6.2-37.8,16.3c8.6-4.7,18.4-7.4,28.9-7.4c2.5,0,5,0.2,7.4,0.5c27.8,3.4,49.7,25.9,52.3,54
				c0.8-3.6,1.2-7.4,1.2-11.2c0-11.9-4-22.9-10.7-31.6C83.9,19.9,69,11.9,52.1,11.9z"/>
		</g>
		<path class="st3" d="M86.1,52.8c-0.3,0-0.5,0-0.8,0c0.3-0.2,0.6-0.3,0.7-0.4c6.6-3.9,9.5-15.2,9.2-15.8C94.9,36.2,83.6,33.1,77,37
			c-0.1,0.1-0.3,0.2-0.4,0.3c0.1-0.2,0.2-0.3,0.2-0.4c3.8-6.6,0.7-18,0.1-18.3c-0.5-0.3-11.9,2.7-15.7,9.4c0,0.1-0.1,0.2-0.1,0.3
			c0-0.1,0-0.2,0-0.3c0-7.7-8.4-15.9-9-15.9c-0.6,0-9,8.3-9,15.9c0,0.2,0,0.3,0,0.5c-0.1-0.2-0.2-0.4-0.3-0.5
			c-3.8-6.6-15.2-9.6-15.7-9.3c-0.5,0.3-3.6,11.6,0.2,18.3c0,0.1,0.1,0.2,0.2,0.3c-0.1-0.1-0.2-0.1-0.3-0.2
			c-6.6-3.9-18-0.8-18.3-0.3c-0.3,0.5,2.6,11.9,9.2,15.8c0.2,0.1,0.5,0.3,0.7,0.4c-0.4,0-0.7,0-0.8,0c-7.7,0-15.9,8.3-15.9,8.9
			c0,0.6,8.3,9,15.9,9c4.8,0,13.8-0.1,13.8-0.1l0-14.3l5.5-9.4l9.3-5.4h10.8l9.4,5.4l5.5,9.4l0,14.3c0,0,12.2,0.1,13.8,0.1
			c7.7,0,15.9-8.4,15.9-9C102,61.2,93.7,52.8,86.1,52.8z"/>
		<path class="st4" d="M52.1,16.8c-0.3,0-6.8,5.2-6.8,11.6c0,4.4,1.5,8.6,2.8,8.4c2.4-0.4,4-0.4,4-0.4s1.6,0,4,0.4
			c1.3,0.2,2.8-4,2.8-8.4C58.9,22,52.4,16.8,52.1,16.8z"/>
		<path class="st4" d="M74.5,22.8c-0.3-0.2-8.5,1.1-11.7,6.7c-2.2,3.8-2.9,8.2-1.7,8.7c2.3,0.9,3.7,1.7,3.7,1.7s1.4,0.8,3.3,2.3
			c1,0.8,4.4-2.1,6.6-5.9C77.8,30.7,74.8,22.9,74.5,22.8z"/>
		<path class="st4" d="M84.3,50.6c5.5-3.3,6.7-11.5,6.5-11.8c-0.2-0.3-7.9-3.2-13.5,0.1c-3.8,2.2-6.6,5.7-5.8,6.7
			c1.5,1.9,2.4,3.3,2.4,3.3s0.8,1.4,1.7,3.6C76.2,53.7,80.6,52.9,84.3,50.6z"/>
		<path class="st4" d="M85.5,54.9c-4.4,0-8.6,1.6-8.4,2.8c0.4,2.4,0.4,4,0.4,4s0,1.6-0.4,4c-0.2,1.3,4,2.8,8.4,2.8
			c6.4,0,11.6-6.5,11.6-6.8C97.2,61.4,91.9,54.9,85.5,54.9z"/>
		<path class="st4" d="M18.7,55c-6.4,0-11.6,6.5-11.6,6.8c0,0.3,5.2,6.8,11.6,6.8c4.4,0,8.6-1.5,8.4-2.8c-0.4-2.4-0.4-4-0.4-4
			s0-1.6,0.4-4C27.3,56.5,23.1,55,18.7,55z"/>
		<path class="st4" d="M26.7,39.1c-5.5-3.2-13.3-0.3-13.5,0c-0.2,0.3,1.1,8.5,6.6,11.7c3.8,2.2,8.2,3,8.6,1.8
			c0.9-2.3,1.7-3.6,1.7-3.6s0.8-1.4,2.3-3.3C33.3,44.7,30.5,41.3,26.7,39.1z"/>
		<path class="st4" d="M29.6,22.8c-0.3,0.2-3.3,7.9-0.1,13.5c2.2,3.8,5.6,6.7,6.6,5.9c1.9-1.5,3.3-2.3,3.3-2.3s1.4-0.8,3.7-1.7
			c1.2-0.5,0.4-4.8-1.8-8.7C38.1,23.9,29.9,22.7,29.6,22.8z"/>
		<circle class="st5" cx="52.1" cy="61.8" r="22"/>
		<g>
			<defs>
				<circle id="XMLID_00000132770013774972742040000006468830376406739640_" cx="52.1" cy="64" r="52.1"/>
			</defs>
			<clipPath id="XMLID_00000096777644963754701750000009013242868465847975_">
				<use xlink:href="#XMLID_00000132770013774972742040000006468830376406739640_"  style="overflow:visible;"/>
			</clipPath>
			
				<linearGradient id="SVGID_00000170256624176190407990000013126232315780726167_" gradientUnits="userSpaceOnUse" x1="1.0776" y1="92.7011" x2="103.6914" y2="92.7011">
				<stop  offset="0" style="stop-color:#1297E0"/>
				<stop  offset="1" style="stop-color:#39D5FF"/>
			</linearGradient>
			
				<path style="clip-path:url(#XMLID_00000096777644963754701750000009013242868465847975_);fill:url(#SVGID_00000170256624176190407990000013126232315780726167_);" d="
				M1.5,73.3c-3.2,7.3,11.3,36.4,36.7,42.7c18.2,4.6,43.5-3.4,49.6-7.7c4.7-0.6,12.4-20.4,13.1-26.3c1.3-3.4,2.2-7,2.7-10.7
				C88.4,68.4,18.1,64.6,1.5,73.3z"/>
		</g>
		<g>
			<defs>
				<circle id="XMLID_00000084520843041998154160000008027437418452938168_" cx="52.1" cy="64" r="52.1"/>
			</defs>
			<clipPath id="XMLID_00000137091999464832451970000011937490194477816961_">
				<use xlink:href="#XMLID_00000084520843041998154160000008027437418452938168_"  style="overflow:visible;"/>
			</clipPath>
			
				<linearGradient id="SVGID_00000021817178656030742300000002374516486539768511_" gradientUnits="userSpaceOnUse" x1="5365.1279" y1="-6361.7046" x2="5058.9971" y2="-5592.0459" gradientTransform="matrix(8.068039e-02 1.241079e-02 1.094676e-02 -7.116297e-02 -300.003 -395.2544)">
				<stop  offset="0" style="stop-color:#1297E0"/>
				<stop  offset="1" style="stop-color:#39D5FF"/>
			</linearGradient>
			
				<path style="clip-path:url(#XMLID_00000137091999464832451970000011937490194477816961_);fill-rule:evenodd;clip-rule:evenodd;fill:url(#SVGID_00000021817178656030742300000002374516486539768511_);" d="
				M62,80.5c5.2,3.2,8.5,6.2,9.4,9.8c0.9,3.8,0.2,7.2-4,10.7c-6.6,5.6-20.6,11-43,15.5l18.1,13c1.2,0.9,2.6,1.5,4.1,1.7
				c1.4,0.2,2.9,0.1,4.4-0.4l26.7-8.8c6.4-3.5,10.8-7.4,13.3-11.4c2.4-3.9,3-7.9,1.9-11.8c-1.1-4-1.1-7.4-5.8-11
				c-8.5-6.6-24-20.7-69.7-18.5C53.2,73.6,62,80.5,62,80.5z"/>
			
				<linearGradient id="SVGID_00000183966534679984673990000006739730748761777060_" gradientUnits="userSpaceOnUse" x1="5488.6875" y1="-6239.9072" x2="5295.9487" y2="-5615.9453" gradientTransform="matrix(8.068039e-02 1.241079e-02 1.094676e-02 -7.116297e-02 -300.003 -395.2544)">
				<stop  offset="0" style="stop-color:#007C21"/>
				<stop  offset="1" style="stop-color:#99CC33"/>
			</linearGradient>
			
				<path style="clip-path:url(#XMLID_00000137091999464832451970000011937490194477816961_);fill-rule:evenodd;clip-rule:evenodd;fill:url(#SVGID_00000183966534679984673990000006739730748761777060_);" d="
				M18,69.4c43.5-3.3,63.3,10.3,69.3,15c5.4,4.2,8.8,8.8,10.1,13.6c1.4,4.9,0.6,9.9-2.3,14.6c-1.1,1.7-2.5,3.4-4.1,5.1l14.1-4.6
				c1.4-0.5,2.6-1.2,3.5-2.2l0,0c0.9-1,1.4-2.2,1.7-3.6l4.6-30.2C114.3,68.2,58.4,64,18,69.4z"/>
			
				<linearGradient id="SVGID_00000137846956073638398260000004723317876811238587_" gradientUnits="userSpaceOnUse" x1="4722.498" y1="-6273.686" x2="4937.2344" y2="-5757.4917" gradientTransform="matrix(8.068039e-02 1.241079e-02 1.094676e-02 -7.116297e-02 -300.003 -395.2544)">
				<stop  offset="0" style="stop-color:#007C21"/>
				<stop  offset="1" style="stop-color:#99CC33"/>
			</linearGradient>
			
				<path style="clip-path:url(#XMLID_00000137091999464832451970000011937490194477816961_);fill-rule:evenodd;clip-rule:evenodd;fill:url(#SVGID_00000137846956073638398260000004723317876811238587_);" d="
				M60.6,83C49.4,76,27.1,69.8-2.9,65.9l-3.6,23.5c-0.2,1.4,0,2.7,0.5,3.9c0.5,1.2,1.5,2.3,2.7,3.2l0,0l23.5,16.9
				c23.6-4.5,37.9-9.8,44.3-15.2c3-2.5,4.1-5,3.6-7.4C67.4,88.2,64.8,85.5,60.6,83z"/>
			<defs>
				<filter id="Adobe_OpacityMaskFilter" filterUnits="userSpaceOnUse" x="-2.9" y="65.9" width="71.1" height="47.5">
					<feColorMatrix  type="matrix" values="1 0 0 0 0  0 1 0 0 0  0 0 1 0 0  0 0 0 1 0"/>
				</filter>
			</defs>
			
				<mask maskUnits="userSpaceOnUse" x="-2.9" y="65.9" width="71.1" height="47.5" id="id0_00000138558488385410660730000013100004112218767789_">
				
					<linearGradient id="SVGID_00000004547662857589314360000008812138108263920299_" gradientUnits="userSpaceOnUse" x1="5347.96" y1="-5762.4131" x2="4541.0894" y2="-6207.354" gradientTransform="matrix(8.068039e-02 1.241079e-02 1.094676e-02 -7.116297e-02 -300.003 -395.2544)">
					<stop  offset="0" style="stop-color:#FFFFFF"/>
					<stop  offset="1" style="stop-color:#FFFFFF;stop-opacity:0"/>
				</linearGradient>
				
					<polygon style="clip-path:url(#XMLID_00000137091999464832451970000011937490194477816961_);fill-rule:evenodd;clip-rule:evenodd;fill:url(#SVGID_00000004547662857589314360000008812138108263920299_);filter:url(#Adobe_OpacityMaskFilter);" points="
					-2.9,65.8 70.5,77.1 63.9,120.1 -9.6,108.8 				"/>
			</mask>
			
				<path style="clip-path:url(#XMLID_00000137091999464832451970000011937490194477816961_);mask:url(#id0_00000138558488385410660730000013100004112218767789_);fill-rule:evenodd;clip-rule:evenodd;fill:#A7DE38;" d="
				M60.6,83C49.4,76,27.1,69.8-2.9,65.9c25.2,5,43.8,11.4,52.8,17.9c3.4,2.4,5.3,4.8,5.7,6.9c0.3,2-0.8,4.1-3.5,6.1
				c-5.8,4.2-18.3,7.9-38.7,10.4c-0.6,0-1.1,0.1-1.6,0.1l8.4,6c23.6-4.5,37.9-9.8,44.3-15.2c3-2.5,4.1-5,3.6-7.4
				C67.4,88.2,64.8,85.5,60.6,83L60.6,83z"/>
			<defs>
				
					<filter id="Adobe_OpacityMaskFilter_00000149374827203596504190000014566602348851621278_" filterUnits="userSpaceOnUse" x="64.5" y="73" width="48.3" height="44.7">
					<feColorMatrix  type="matrix" values="1 0 0 0 0  0 1 0 0 0  0 0 1 0 0  0 0 0 1 0"/>
				</filter>
			</defs>
			
				<mask maskUnits="userSpaceOnUse" x="64.5" y="73" width="48.3" height="44.7" id="id2_00000037681980356158805080000002424761206609613745_">
				
					<linearGradient id="SVGID_00000008856915249768296620000005353185517308425379_" gradientUnits="userSpaceOnUse" x1="5273.6016" y1="-5672.2534" x2="6215.8589" y2="-6413.9927" gradientTransform="matrix(8.068039e-02 1.241079e-02 1.094676e-02 -7.116297e-02 -300.003 -395.2544)">
					<stop  offset="0" style="stop-color:#FFFFFF"/>
					<stop  offset="1" style="stop-color:#FFFFFF;stop-opacity:0"/>
				</linearGradient>
				
					<polygon style="clip-path:url(#XMLID_00000137091999464832451970000011937490194477816961_);fill-rule:evenodd;clip-rule:evenodd;fill:url(#SVGID_00000008856915249768296620000005353185517308425379_);filter:url(#Adobe_OpacityMaskFilter_00000149374827203596504190000014566602348851621278_);" points="
					64.2,70.5 114.9,78.3 108.3,120.7 57.6,112.9 				"/>
			</mask>
			
				<path style="clip-path:url(#XMLID_00000137091999464832451970000011937490194477816961_);mask:url(#id2_00000037681980356158805080000002424761206609613745_);fill-rule:evenodd;clip-rule:evenodd;fill:#A7DE38;" d="
				M110.1,107.3l2.6-17.1c-8.4-12.7-27.4-18.3-48.3-17c10.2,3.3,16.8,6.5,22.8,11.2c5.4,4.2,8.8,8.8,10.1,13.6
				c1.4,4.9,0.6,9.9-2.3,14.6c-1.1,1.7-2.5,3.4-4.1,5.1l14.1-4.6c1.4-0.5,2.6-1.2,3.5-2.2l0,0C109.4,109.9,109.9,108.7,110.1,107.3
				L110.1,107.3z"/>
		</g>
	</g>
	<g>
		<g>
			<path d="M127.5,19.3c-1.7,0-3.1,1.3-3.1,3c0,1.7,1.4,3,3.1,3c0.9,0,1.8-0.4,2.4-1l0.9,1c-0.9,0.9-2.1,1.4-3.3,1.4
				c-2.5,0-4.5-1.9-4.5-4.4c0-2.5,2-4.3,4.5-4.3c1.2,0,2.4,0.5,3.3,1.3l-0.9,1.1C129.2,19.7,128.3,19.3,127.5,19.3z"/>
			<path d="M144.2,22.4c0,2.5-2,4.4-4.6,4.4c-2.6,0-4.6-1.9-4.6-4.4c0-2.5,2-4.4,4.6-4.4C142.2,18,144.2,19.9,144.2,22.4z
				 M136.5,22.4c0,1.7,1.4,3.1,3.1,3.1s3.1-1.4,3.1-3.1c0-1.7-1.4-3-3.1-3C137.9,19.3,136.5,20.7,136.5,22.4z"/>
			<path d="M150.9,18.1v7.3h3.7v1.3h-5.2v-8.6H150.9z"/>
			<path d="M165.9,18.1v1.3h-4.7v2.3h4.2V23h-4.2v2.4h4.9v1.3h-6.3v-8.6H165.9z M164.8,15.9l-1.5,1.2h-1.3l1.3-1.8L164.8,15.9z"/>
			<path d="M177.4,22.5h1.3v3.2c-0.9,0.7-2.2,1.1-3.4,1.1c-2.6,0-4.5-1.9-4.5-4.4c0-2.5,2-4.4,4.6-4.4c1.2,0,2.5,0.5,3.3,1.2
				l-0.8,1.1c-0.7-0.6-1.6-1-2.5-1c-1.8,0-3.1,1.3-3.1,3.1c0,1.7,1.4,3.1,3.2,3.1c0.6,0,1.4-0.2,2-0.6V22.5z"/>
			<path d="M185.9,18.1v8.6h-1.5v-8.6H185.9z"/>
			<path d="M200.3,22.4c0,2.5-2,4.4-4.6,4.4c-2.6,0-4.6-1.9-4.6-4.4c0-2.5,2-4.4,4.6-4.4C198.3,18,200.3,19.9,200.3,22.4z
				 M192.7,22.4c0,1.7,1.4,3.1,3.1,3.1c1.7,0,3.1-1.4,3.1-3.1c0-1.7-1.4-3-3.1-3C194.1,19.3,192.7,20.7,192.7,22.4z"/>
			<path d="M219.2,18.1v1.3h-4.7v2.3h4.2V23h-4.2v2.4h4.9v1.3H213v-8.6H219.2z"/>
			<path d="M227.5,19.4c-0.9,0-1.4,0.3-1.4,0.9c0,1.9,4.7,0.9,4.7,4c0,1.5-1.4,2.5-3.3,2.5c-1.4,0-2.6-0.6-3.5-1.4l0.6-1.3
				c0.9,0.8,2,1.3,2.9,1.3c1,0,1.6-0.4,1.6-1c0-1.9-4.7-0.9-4.7-3.9c0-1.5,1.3-2.4,3.1-2.4c1.1,0,2.2,0.4,3,0.9l-0.6,1.3
				C229.1,19.6,228.2,19.4,227.5,19.4z"/>
			<path d="M242.1,18.1v1.3h-2.7v7.3h-1.5v-7.3h-2.7v-1.3H242.1z"/>
			<path d="M251.8,24.7h-4.4l-0.8,2h-1.5l3.8-8.6h1.5l3.8,8.6h-1.6L251.8,24.7z M251.2,23.5l-1.6-3.8l-1.6,3.8H251.2z"/>
			<path d="M267,22.4c0,2.5-1.9,4.3-4.5,4.3H259v-8.6h3.5C265.1,18.1,267,19.9,267,22.4z M265.5,22.4c0-1.8-1.3-3-3-3h-2.1v6h2.1
				C264.2,25.4,265.5,24.1,265.5,22.4z"/>
			<path d="M275.9,25.4c1.4,0,2.3-0.9,2.3-2.3v-5.1h1.5v5.1c0,2.3-1.4,3.6-3.8,3.6s-3.8-1.4-3.8-3.6v-5.1h1.5v5.1
				C273.5,24.6,274.4,25.4,275.9,25.4z"/>
			<path d="M290.7,24.7h-4.4l-0.8,2H284l3.8-8.6h1.5l3.8,8.6h-1.6L290.7,24.7z M290.2,23.5l-1.6-3.8l-1.6,3.8H290.2z"/>
			<path d="M299.4,18.1v7.3h3.7v1.3H298v-8.6H299.4z"/>
			<path d="M323.7,22.4c0,2.5-1.9,4.3-4.5,4.3h-3.5v-8.6h3.5C321.8,18.1,323.7,19.9,323.7,22.4z M322.2,22.4c0-1.8-1.3-3-3-3h-2.1v6
				h2.1C320.9,25.4,322.2,24.1,322.2,22.4z"/>
			<path d="M337,22.4c0,2.5-2,4.4-4.6,4.4c-2.6,0-4.6-1.9-4.6-4.4c0-2.5,2-4.4,4.6-4.4C335,18,337,19.9,337,22.4z M329.3,22.4
				c0,1.7,1.4,3.1,3.1,3.1s3.1-1.4,3.1-3.1c0-1.7-1.4-3-3.1-3C330.7,19.3,329.3,20.7,329.3,22.4z"/>
			<path d="M353.5,19.3c-1.7,0-3.1,1.3-3.1,3c0,1.7,1.4,3,3.1,3c0.9,0,1.8-0.4,2.4-1l0.9,1c-0.9,0.9-2.1,1.4-3.3,1.4
				c-2.5,0-4.5-1.9-4.5-4.4c0-2.5,2-4.3,4.5-4.3c1.2,0,2.4,0.5,3.3,1.3l-0.9,1.1C355.3,19.7,354.4,19.3,353.5,19.3z"/>
			<path d="M367.5,24.7h-4.4l-0.8,2h-1.5l3.8-8.6h1.5l3.8,8.6h-1.6L367.5,24.7z M366.9,23.5l-1.6-3.8l-1.6,3.8H366.9z"/>
			<path d="M376.5,18.1l2.9,5.7l2.8-5.7h1.7v8.6h-1.3l0-6.5l-2.7,5.6h-1l-2.7-5.6v6.5h-1.4v-8.6H376.5z"/>
			<path d="M396.7,21c0,2-1.2,3.1-3.4,3.1h-2v2.6h-1.5v-8.6h3.4C395.5,18.1,396.7,19.1,396.7,21z M395.3,21c0-1.1-0.8-1.7-2.1-1.7
				h-1.9v3.4h1.9C394.6,22.8,395.3,22.2,395.3,21z"/>
			<path d="M410.3,22.4c0,2.5-2,4.4-4.6,4.4c-2.6,0-4.6-1.9-4.6-4.4c0-2.5,2-4.4,4.6-4.4C408.3,18,410.3,19.9,410.3,22.4z
				 M402.6,22.4c0,1.7,1.4,3.1,3.1,3.1s3.1-1.4,3.1-3.1c0-1.7-1.4-3-3.1-3C404,19.3,402.6,20.7,402.6,22.4z"/>
			<path d="M431,22.4c0,2.5-1.9,4.3-4.5,4.3H423v-8.6h3.5C429.1,18.1,431,19.9,431,22.4z M429.5,22.4c0-1.8-1.3-3-3-3h-2.1v6h2.1
				C428.2,25.4,429.5,24.1,429.5,22.4z"/>
			<path d="M444.3,22.4c0,2.5-2,4.4-4.6,4.4c-2.6,0-4.6-1.9-4.6-4.4c0-2.5,2-4.4,4.6-4.4C442.3,18,444.3,19.9,444.3,22.4z
				 M436.7,22.4c0,1.7,1.4,3.1,3.1,3.1s3.1-1.4,3.1-3.1c0-1.7-1.4-3-3.1-3C438.1,19.3,436.7,20.7,436.7,22.4z"/>
		</g>
		<g>
			<rect x="122.9" y="108" width="94.6" height="0.7"/>
			<rect x="349.8" y="108" width="94.6" height="0.7"/>
			<g>
				<path d="M230.6,108.3c0,1.5-1,2.4-2.6,2.4h-1.5v2h-1.1V106h2.6C229.6,106,230.6,106.9,230.6,108.3z M229.5,108.3
					c0-0.9-0.6-1.3-1.6-1.3h-1.5v2.6h1.5C228.9,109.7,229.5,109.2,229.5,108.3z"/>
				<path d="M235.2,106v6.6h-1.1V106H235.2z"/>
				<path d="M243.8,106v1h-2.1v5.6h-1.1V107h-2.1v-1H243.8z"/>
				<path d="M250.8,111.2h-3.4l-0.6,1.5h-1.2l2.9-6.6h1.1l2.9,6.6h-1.2L250.8,111.2z M250.4,110.2l-1.3-3l-1.3,3H250.4z"/>
				<path d="M257,106l3.6,4.8V106h1.1v6.6h-1.1l-3.5-4.8v4.8h-1.1V106H257z"/>
				<path d="M270.4,109.4h1v2.5c-0.7,0.5-1.7,0.9-2.6,0.9c-2,0-3.5-1.5-3.5-3.4c0-1.9,1.5-3.4,3.6-3.4c0.9,0,1.9,0.4,2.6,0.9
					l-0.6,0.8c-0.5-0.5-1.2-0.8-1.9-0.8c-1.4,0-2.4,1-2.4,2.4c0,1.3,1.1,2.4,2.4,2.4c0.5,0,1.1-0.2,1.5-0.5V109.4z"/>
				<path d="M279.6,111.2h-3.4l-0.6,1.5h-1.2l2.9-6.6h1.1l2.9,6.6h-1.2L279.6,111.2z M279.2,110.2l-1.3-3l-1.3,3H279.2z"/>
				<path d="M295.2,108.3c0,1.5-1,2.4-2.6,2.4H291v2h-1.1V106h2.6C294.2,106,295.2,106.9,295.2,108.3z M294.1,108.3
					c0-0.9-0.6-1.3-1.6-1.3H291v2.6h1.5C293.5,109.7,294.1,109.2,294.1,108.3z"/>
				<path d="M302.5,111.2h-3.4l-0.6,1.5h-1.2l2.9-6.6h1.1l2.9,6.6h-1.2L302.5,111.2z M302.1,110.2l-1.3-3l-1.3,3H302.1z"/>
				<path d="M311.9,112.7l-1.2-2c-0.1,0-0.2,0-0.3,0h-1.6v2h-1.1V106h2.7c1.7,0,2.7,0.8,2.7,2.3c0,1.1-0.5,1.8-1.4,2.2l1.5,2.2
					H311.9z M310.3,109.7c1,0,1.6-0.4,1.6-1.3c0-0.9-0.6-1.3-1.6-1.3h-1.6v2.6H310.3z"/>
				<path d="M321.2,111.2h-3.4l-0.6,1.5H316l2.9-6.6h1.1l2.9,6.6h-1.2L321.2,111.2z M320.7,110.2l-1.3-3l-1.3,3H320.7z"/>
				<path d="M327.4,106l3.6,4.8V106h1.1v6.6h-1.1l-3.5-4.8v4.8h-1.1V106H327.4z"/>
				<path d="M340.5,111.2h-3.4l-0.6,1.5h-1.2l2.9-6.6h1.1l2.9,6.6h-1.2L340.5,111.2z M340,110.2l-1.3-3l-1.3,3H340z M339.1,105.3h-1
					l1-1.4l1.1,0.5L339.1,105.3z"/>
			</g>
		</g>
		<g>
			<path d="M135.3,97.5c-0.3-1.1-0.4-2.2-0.5-3.4c-0.1-1.2-0.1-2.5-0.2-3.9l-0.2-14.8c-0.1-1.8-0.2-3-0.6-3.8c-0.3-0.7-1-1.1-2-1.1
				h-1.3v27.1h-7.6V35.6h10.7c6,0,9,3.2,9,9.6v14.4c0,1.8-0.4,3.2-1.2,4.2c-0.8,1.1-2.1,1.9-3.8,2.5v0.2c0.9,0.3,1.7,0.7,2.2,1.4
				c0.6,0.6,1,1.5,1.3,2.6c0.3,1.1,0.5,2.4,0.7,3.9c0.1,1.5,0.2,3.2,0.3,5.3l0.2,10.8c0,1.3,0.1,2.5,0.2,3.7
				c0.1,1.2,0.3,2.3,0.6,3.4H135.3z M134.9,44.4c0-1.8-0.9-2.6-2.6-2.6h-1.9v22.4h1.5c1,0,1.8-0.2,2.2-0.7s0.7-1.3,0.7-2.4V44.4z"/>
			<path d="M148.4,97.5V35.6h7.7v61.9H148.4z"/>
			<path d="M181.8,88.9c0,2.8-0.9,5-2.6,6.7c-1.8,1.7-4.1,2.6-7,2.6c-3.1,0-5.5-0.8-7.3-2.5c-1.8-1.7-2.7-3.9-2.7-6.8V44.2
				c0-2.8,0.9-5,2.7-6.7c1.8-1.7,4.2-2.6,7.2-2.6c2.9,0,5.3,0.8,7,2.5c1.8,1.7,2.6,3.9,2.6,6.8V88.9z M174.2,43
				c0-0.6-0.2-1.1-0.6-1.5c-0.4-0.4-0.9-0.6-1.5-0.6c-0.7,0-1.2,0.2-1.6,0.6c-0.4,0.4-0.6,0.9-0.6,1.5V90c0,0.6,0.2,1.1,0.6,1.5
				c0.4,0.4,1,0.6,1.7,0.6c0.6,0,1.1-0.2,1.5-0.6c0.4-0.4,0.6-0.9,0.6-1.5V43z"/>
			<path d="M217.2,88.5c0,6-3.2,9-9.5,9h-10.1V35.6h9.9c3.5,0,5.9,0.8,7.5,2.3c1.5,1.5,2.3,4,2.3,7.5V88.5z M209.7,45.7
				c0-1.3-0.2-2.2-0.6-2.7c-0.4-0.5-1.2-0.7-2.4-0.7h-1.5v48.4h1.5c1,0,1.8-0.2,2.2-0.6c0.5-0.4,0.7-1.1,0.7-2V45.7z"/>
			<path d="M242.8,88.9c0,2.8-0.9,5-2.6,6.7c-1.8,1.7-4.1,2.6-7,2.6c-3.1,0-5.5-0.8-7.3-2.5c-1.8-1.7-2.7-3.9-2.7-6.8V44.2
				c0-2.8,0.9-5,2.7-6.7c1.8-1.7,4.2-2.6,7.2-2.6c2.9,0,5.3,0.8,7,2.5c1.8,1.7,2.6,3.9,2.6,6.8V88.9z M235.2,43
				c0-0.6-0.2-1.1-0.6-1.5c-0.4-0.4-0.9-0.6-1.5-0.6c-0.7,0-1.2,0.2-1.6,0.6c-0.4,0.4-0.6,0.9-0.6,1.5V90c0,0.6,0.2,1.1,0.6,1.5
				c0.4,0.4,1,0.6,1.7,0.6c0.6,0,1.1-0.2,1.5-0.6c0.4-0.4,0.6-0.9,0.6-1.5V43z"/>
			<path d="M279.1,97.5V61h-0.2l-4.5,36.4h-4.3L265.4,61v36.4h-6.8V35.6h8.7l5,37.8h0.2l5.4-37.8h7.8v61.9H279.1z"/>
			<path d="M292.1,97.5V35.6H308v6.1h-8.4v20.6h7.1v6.2h-7.1v22.8h8.5v6.1H292.1z"/>
			<path d="M313.3,97.5V35.6h7.7v61.9H313.3z"/>
			<path d="M346.7,88.9c0,2.8-0.9,5-2.6,6.7c-1.8,1.7-4.1,2.6-7,2.6c-3.1,0-5.5-0.8-7.3-2.5c-1.8-1.7-2.7-3.9-2.7-6.8V44.2
				c0-2.8,0.9-5,2.7-6.7c1.8-1.7,4.2-2.6,7.2-2.6c2.9,0,5.3,0.8,7,2.5c1.8,1.7,2.6,3.9,2.6,6.8V88.9z M339.2,43
				c0-0.6-0.2-1.1-0.6-1.5c-0.4-0.4-0.9-0.6-1.5-0.6c-0.7,0-1.2,0.2-1.6,0.6c-0.4,0.4-0.6,0.9-0.6,1.5V90c0,0.6,0.2,1.1,0.6,1.5
				c0.4,0.4,1,0.6,1.7,0.6c0.6,0,1.1-0.2,1.5-0.6c0.4-0.4,0.6-0.9,0.6-1.5V43z"/>
			<path d="M356.5,103.6H354l2.3-6.2h-3.7v-8.3h6.7v8.3L356.5,103.6z"/>
			<path d="M375,97.5V35.6H391v6.1h-8.4v20.6h7.1v6.2h-7.1v22.8h8.5v6.1H375z"/>
			<path d="M403.9,41.7v20.6h7.1v6.2h-7.1v28.9h-7.6V35.6h16v6.1H403.9z"/>
			<path d="M437.7,97.5V61h-0.2L433,97.5h-4.3L424,61v36.4h-6.8V35.6h8.7l5,37.8h0.2l5.4-37.8h7.8v61.9H437.7z"/>
		</g>
	</g>
</g>
</svg>
